<svg version="1.1" id="Layer_1" xmlns="http://www.w3.org/2000/svg" xmlns:xlink="http://www.w3.org/1999/xlink" x="0px" y="0px"
	 width="100%" viewBox="0 0 1024 768" enable-background="new 0 0 1024 768" xml:space="preserve">
<path fill="#FCFCFB" opacity="1.000000" stroke="none" 
	d="
M699.000000,769.000000 
	C466.000000,769.000000 233.500000,769.000000 1.000000,769.000000 
	C1.000000,513.000000 1.000000,257.000000 1.000000,1.000000 
	C342.333344,1.000000 683.666687,1.000000 1025.000000,1.000000 
	C1025.000000,257.000000 1025.000000,513.000000 1025.000000,769.000000 
	C916.500000,769.000000 808.000000,769.000000 699.000000,769.000000 
M389.319977,548.567993 
	C389.631714,548.711670 389.943481,548.855347 390.059357,549.693176 
	C388.742859,552.404602 387.426331,555.115967 385.468414,559.148376 
	C393.135071,555.179382 399.373993,551.949524 405.612885,548.719727 
	C405.492065,548.487976 405.371216,548.256287 405.250397,548.024597 
	C400.296875,548.024597 395.343384,548.024597 391.073120,547.724182 
	C393.400818,544.477783 395.728485,541.231323 398.724030,537.887207 
	C399.118195,537.176025 399.512390,536.464783 400.251862,535.166260 
	C401.182983,533.687378 402.114105,532.208496 403.693970,531.063416 
	C415.416473,537.314209 427.590515,542.859070 438.747131,549.994751 
	C452.676178,558.903503 462.776062,571.253967 464.429504,588.528748 
	C465.490356,599.612244 466.221710,610.795654 465.978455,621.909729 
	C465.836029,628.416687 463.611359,634.905518 462.035797,641.331970 
	C461.696045,642.717834 459.917694,644.964905 459.148010,644.830688 
	C454.790405,644.070862 453.190796,647.420410 450.541809,649.517822 
	C447.610168,651.839111 444.213654,654.381104 440.697601,655.001221 
	C431.119232,656.690491 421.531891,658.356750 411.592133,657.522400 
	C399.313324,656.491760 386.947113,656.411743 374.613800,656.156982 
	C367.834778,656.016968 361.045624,656.354126 354.261597,656.502747 
	C353.776245,656.513367 353.295898,656.853394 352.812836,656.854431 
	C347.338531,656.865906 341.860168,656.963867 336.390961,656.787720 
	C331.901031,656.643311 327.421967,656.161438 321.993683,655.759155 
	C318.181152,651.500366 307.406189,651.423645 302.440887,656.422791 
	C301.510254,657.359802 299.854858,657.968140 298.501251,658.031616 
	C287.939728,658.526855 277.363464,658.721130 266.805206,659.268127 
	C257.319000,659.759644 247.773132,660.076233 238.410263,661.500183 
	C234.563156,662.085205 231.142883,665.272339 226.679733,664.380005 
	C224.931992,664.030579 222.800095,663.564941 221.331406,664.230103 
	C216.439072,666.445984 212.184677,664.947632 207.529175,663.346619 
	C203.611038,661.999268 199.235382,661.399963 195.077835,661.465027 
	C188.528793,661.567383 181.989716,662.472595 175.452118,663.097656 
	C168.010742,663.809021 160.250427,660.898071 153.089966,665.135925 
	C152.212387,665.655273 150.862183,665.383423 149.729996,665.464111 
	C141.817261,666.028198 133.904251,666.588501 125.748024,667.167297 
	C127.314507,670.755676 128.748398,674.040344 130.234329,677.444214 
	C138.328369,678.529480 147.316483,679.734619 156.329773,680.943176 
	C155.848038,681.448547 155.295242,682.028442 154.429062,682.937134 
	C163.468597,684.320557 171.966675,685.621094 180.272430,686.892151 
	C181.443405,685.173828 182.420105,683.740540 183.212845,682.577209 
	C190.584549,683.032410 197.643005,683.468262 204.701477,683.904053 
	C204.825546,683.494385 204.949615,683.084656 205.073685,682.674927 
	C203.846558,681.862305 202.619431,681.049622 201.323883,680.191650 
	C202.980118,679.728210 204.646835,679.261841 207.018814,678.598083 
	C205.379395,683.160278 207.670258,683.109680 210.716537,682.870178 
	C212.814880,682.705200 215.017044,683.274841 217.106857,683.785889 
	C218.587616,684.148010 219.932602,685.401062 221.382980,685.485229 
	C224.922211,685.690735 228.524033,685.094727 232.034760,685.458069 
	C239.827789,686.264526 247.420380,689.412048 255.419434,685.265625 
	C257.716187,684.075073 262.321259,684.693787 264.440277,686.330872 
	C269.525787,690.259827 275.000366,688.319580 280.282959,689.102783 
	C283.887177,689.637024 286.396698,689.054688 288.814270,686.491760 
	C289.207367,686.075012 290.802307,686.764832 291.833130,686.983826 
	C293.000305,687.231689 294.160400,687.766968 295.318970,687.754395 
	C299.004517,687.714233 301.989716,687.713928 305.495544,684.438538 
	C308.038727,682.062378 314.836304,684.239807 319.644867,684.349121 
	C319.644867,684.349121 319.738037,684.372681 319.055511,684.866882 
	C320.250397,685.629700 321.476440,687.083740 322.634583,687.031555 
	C326.902100,686.839172 331.137085,685.985657 335.405365,685.721191 
	C337.200714,685.609924 339.044708,686.369446 340.874359,686.688416 
	C341.765930,686.843933 342.681030,687.017944 343.575897,686.976440 
	C349.813232,686.687439 356.047974,686.076111 362.283722,686.073975 
	C375.220673,686.069641 388.227570,687.332092 401.082153,686.388977 
	C447.678253,682.970337 494.289551,682.361206 540.967896,683.615417 
	C556.858521,684.042419 572.770264,683.683228 588.672363,683.683228 
	C588.709534,683.836914 588.746765,683.990601 588.783936,684.144287 
	C587.510071,683.883728 586.236267,683.623169 584.962402,683.362549 
	C587.658936,683.026184 590.320801,682.981140 592.979736,683.050293 
	C593.929504,683.074951 595.487854,683.091370 595.720703,683.595459 
	C597.597656,687.660095 601.315430,687.044800 604.570129,687.109619 
	C614.949951,687.316284 625.334290,687.313049 635.717041,687.339905 
	C637.946838,687.345642 641.359497,688.000183 642.186829,686.866699 
	C644.726624,683.386597 647.126221,685.815002 649.666992,686.007263 
	C655.068359,686.415771 661.039795,690.395935 665.475403,683.747620 
	C665.655945,683.476990 666.407837,683.516235 666.890198,683.529663 
	C670.549805,683.631653 674.211243,683.716736 677.865112,683.928467 
	C678.523376,683.966675 679.174744,684.523254 679.785156,684.910278 
	C681.430359,685.953247 682.960449,687.738464 684.700012,687.963562 
	C689.380432,688.569031 694.628113,683.974487 698.805664,689.594727 
	C698.951477,689.790771 699.440247,689.803955 699.762573,689.785767 
	C704.842224,689.499878 709.927124,689.268921 714.995178,688.841125 
	C716.238770,688.736206 717.395630,687.847717 718.646545,687.538147 
	C722.052734,686.695007 726.461365,684.262085 728.712402,685.545898 
	C733.654907,688.364502 738.107239,687.134216 742.843628,686.561768 
	C746.162048,686.160706 749.618286,684.798767 752.749573,685.353333 
	C761.312378,686.869751 768.697021,682.643127 776.996887,681.944153 
	C776.276062,680.761169 775.892639,680.131958 775.258179,679.090698 
	C778.794067,679.090698 781.767334,679.090698 785.585815,679.090698 
	C782.747314,680.556274 780.716675,681.604736 778.686096,682.653198 
	C778.861328,683.072693 779.036621,683.492249 779.211853,683.911804 
	C786.361389,683.456848 793.510864,683.001892 800.698059,682.544556 
	C801.475647,683.876770 802.280945,685.256592 803.229004,686.880981 
	C811.723206,685.591919 820.421936,684.271851 829.440613,682.903198 
	C828.515259,681.917725 827.987366,681.355530 827.633545,680.978699 
	C836.817810,679.718994 845.822693,678.483826 853.897766,677.376221 
	C855.611145,673.923828 857.244873,670.631897 858.836792,667.424133 
	C851.173828,666.675537 843.898804,666.114075 836.668579,665.199280 
	C832.687317,664.695618 828.811157,663.109497 824.835205,662.865417 
	C815.386169,662.285278 805.898804,661.869141 796.440735,662.062561 
	C790.538147,662.183289 784.274170,659.349487 778.751099,662.855774 
	C772.148560,667.047180 765.272400,664.003601 758.547607,664.472778 
	C756.738647,664.598938 754.472900,665.273926 753.186707,664.468140 
	C749.305054,662.036255 745.211121,661.297607 740.765259,661.049316 
	C733.341919,660.634705 725.924805,659.983704 718.531311,659.187683 
	C705.789429,657.815735 692.040771,663.780884 680.447510,653.390320 
	C677.456787,650.709900 665.473877,653.687012 662.699585,656.484924 
	C660.562988,656.307068 658.615112,655.906250 656.701416,656.030823 
	C651.202820,656.388916 645.410950,658.309204 640.296021,657.145935 
	C631.516541,655.149231 622.953674,659.624451 613.980652,656.121155 
	C608.605774,654.022705 601.698608,655.604980 595.499329,655.915771 
	C584.826965,656.450867 574.177246,657.560730 563.502075,657.857666 
	C559.214661,657.976868 554.110107,657.736938 550.818420,655.520508 
	C548.150085,653.723816 545.543945,652.929077 542.776428,651.853699 
	C540.800354,651.085876 538.687134,649.940796 537.357056,648.357605 
	C528.007568,637.228760 525.539307,623.544861 524.279114,609.750793 
	C523.508118,601.312378 523.167053,592.908936 529.035889,585.037415 
	C544.380676,564.456604 565.248413,551.510986 587.634521,540.397949 
	C588.498779,539.968933 589.761963,540.343262 591.107178,540.343262 
	C589.091064,543.484741 586.718262,545.743103 586.139709,548.393250 
	C585.051392,553.378052 584.541931,558.595642 584.617676,563.704224 
	C584.745667,572.338623 585.338257,580.980469 586.163025,589.578186 
	C586.333679,591.357361 588.372253,592.957336 589.549927,594.639954 
	C590.064453,594.337036 590.579041,594.034180 591.093628,593.731323 
	C589.739929,582.916321 592.546997,571.866333 588.318298,561.142639 
	C586.471313,556.459045 588.158325,552.158936 592.688843,549.016113 
	C599.657654,544.181885 599.582642,543.888733 596.564880,535.936584 
	C602.336914,532.990479 608.181213,530.007446 613.978516,526.965576 
	C613.978516,526.965576 613.941406,526.900085 614.527588,527.586792 
	C614.892029,530.864075 615.215271,534.146606 615.630371,537.417419 
	C616.293945,542.644897 617.453064,547.850037 617.628601,553.090576 
	C618.018982,564.745422 617.892334,576.416992 618.084961,588.079956 
	C618.108276,589.492371 618.798523,590.893799 619.179749,592.300354 
	C619.627319,592.208984 620.074951,592.117615 620.522522,592.026245 
	C620.658203,591.276123 620.906067,590.527100 620.913147,589.775757 
	C621.056213,574.612183 621.213867,559.448425 621.239868,544.284485 
	C621.243225,542.348511 620.689453,540.363708 620.122681,538.483215 
	C617.807434,530.801575 619.071716,527.215027 625.832092,522.912476 
	C629.823303,520.372253 633.944092,517.934021 631.982727,511.896912 
	C635.177979,512.927185 635.177979,512.927185 638.989258,523.309143 
	C640.346069,523.054565 641.760864,522.789124 642.738953,522.605591 
	C648.805359,526.377930 648.224976,530.811523 645.224976,536.129456 
	C643.946411,538.395935 643.308960,541.877563 644.059570,544.282837 
	C646.827576,553.152527 647.072937,562.237915 647.564819,571.341003 
	C647.594849,571.897217 648.045105,572.430786 648.599182,573.614014 
	C649.543518,572.317993 650.697937,571.466736 650.678528,570.643127 
	C650.537415,564.656921 651.369324,558.285583 649.590393,552.780151 
	C646.454407,543.074890 649.170715,538.384338 656.768250,533.497864 
	C659.451050,531.772400 661.079712,528.407959 663.189575,525.791870 
	C662.890747,525.410278 662.591858,525.028625 662.293030,524.647034 
	C663.473938,524.770020 664.654846,524.893005 666.160156,525.049744 
	C664.562988,529.107117 663.137878,532.727234 661.044373,538.045227 
	C668.867676,532.962769 674.134949,537.673706 680.571655,540.838928 
	C675.372559,531.191650 670.854431,522.807983 666.136597,514.053650 
	C669.006592,513.012024 671.131836,512.240662 673.151062,511.507843 
	C675.837280,517.367676 671.961548,527.166626 684.157471,526.606140 
	C682.596008,524.268738 681.686646,521.925232 679.988220,520.571899 
	C676.580566,517.856567 677.412659,515.452393 679.345215,512.900452 
	C682.530945,515.361267 685.235901,518.580017 688.666443,519.871765 
	C696.428650,522.794495 704.605103,524.593323 712.509888,527.166321 
	C724.041260,530.919861 735.508484,534.877991 746.929138,538.955750 
	C748.412109,539.485291 750.227783,541.059082 750.565186,542.466492 
	C751.792480,547.586670 752.928223,552.814392 753.231201,558.051697 
	C753.779358,567.527039 753.687073,577.038818 753.910522,586.534241 
	C753.938599,587.727478 754.258545,588.913818 754.443237,590.103394 
	C754.931824,590.153198 755.420349,590.202942 755.908875,590.252686 
	C756.239990,588.789795 756.856140,587.326965 756.856140,585.864075 
	C756.856384,576.032593 756.869690,566.196594 756.561829,556.372009 
	C756.449219,552.777771 755.836060,549.103699 754.817810,545.652893 
	C752.557190,537.991821 753.410950,534.876648 759.847534,530.216675 
	C765.172668,526.361389 765.498108,524.995300 762.601685,518.995850 
	C760.373657,514.380920 757.863464,509.815125 759.349426,504.620819 
	C767.818970,500.718506 773.004822,509.563965 781.465698,508.965546 
	C779.355347,510.442780 778.183777,511.262848 777.102112,512.020020 
	C779.286743,516.129517 781.345825,520.002808 783.647705,524.332764 
	C785.455139,523.910278 787.692444,523.780151 789.553589,522.875854 
	C794.453552,520.495117 799.092102,517.566650 804.029480,515.276062 
	C806.861694,513.962158 810.761597,510.175049 812.192627,517.066467 
	C812.341553,517.783569 814.389099,518.508850 815.567139,518.527954 
	C818.211670,518.570862 820.887512,518.328247 823.507629,517.923523 
	C831.665161,516.663635 832.568237,515.661194 832.918030,507.356689 
	C833.120178,502.556610 834.726929,498.689331 839.409546,496.502838 
	C838.660278,494.657104 837.965149,492.944702 836.686523,489.794891 
	C842.238586,493.561249 846.520508,496.465973 851.188843,499.632812 
	C852.243103,495.797546 853.108032,492.651306 854.046021,489.239136 
	C852.036194,489.077972 850.270325,488.936371 848.504456,488.794739 
	C848.208740,488.394714 847.913025,487.994659 847.617310,487.594604 
	C850.243713,485.404114 852.706116,481.812683 855.550049,481.479645 
	C857.709290,481.226776 860.355896,485.118683 862.777344,487.176178 
	C862.893616,487.274994 862.938416,487.465546 862.999756,487.619995 
	C864.219177,490.688599 866.445862,491.585419 869.697510,491.356476 
	C879.231812,490.685120 888.629028,490.940674 897.029114,496.564941 
	C898.506653,497.554230 900.407227,497.944641 902.147522,498.502350 
	C907.560364,500.237061 909.129517,499.143494 909.390259,493.537354 
	C909.877869,483.056641 912.432007,479.823730 922.818787,479.738068 
	C934.170959,479.644501 934.227966,474.125519 931.734192,466.208252 
	C931.236145,464.627228 930.599854,463.073669 929.870239,461.584442 
	C926.577148,454.863647 923.149536,448.207611 919.936584,441.449280 
	C918.633667,438.708618 917.754211,435.766693 916.682068,432.916382 
	C917.213684,433.131866 917.745300,433.347351 918.276917,433.562866 
	C920.510559,431.608917 924.220581,429.958313 924.696167,427.643219 
	C926.030090,421.150116 920.699768,412.778046 914.335693,409.658234 
	C912.322266,412.974243 910.295776,416.311859 908.140015,419.862305 
	C907.239929,419.073914 906.763428,418.647186 906.277161,418.232025 
	C903.312134,415.701019 901.604919,407.775635 903.583191,404.659180 
	C906.158447,400.602325 909.917786,401.909576 913.453186,402.929871 
	C916.902649,403.925354 920.299133,405.104248 923.718811,406.202637 
	C923.903748,405.944397 924.088684,405.686157 924.273560,405.427948 
	C921.626953,402.571777 918.980347,399.715637 916.095520,396.602417 
	C919.826782,394.592560 923.258789,392.743866 926.317505,391.096252 
	C922.893738,381.849731 914.994385,383.178986 906.528687,383.170471 
	C910.055908,380.638031 912.618347,379.127411 914.734375,377.141205 
	C915.806152,376.135223 916.758179,374.185883 916.588135,372.808258 
	C915.649658,365.205078 916.043213,364.479645 923.932434,362.709442 
	C917.133423,349.158295 906.080872,341.116943 891.817505,337.009216 
	C890.131714,336.523743 887.690125,336.028961 887.105652,334.813782 
	C884.699219,329.810394 882.108582,324.679230 881.042175,319.306030 
	C879.879211,313.446198 877.957886,308.778564 872.225586,306.479462 
	C866.519958,304.191040 860.802490,301.882294 854.948120,300.032288 
	C851.208801,298.850647 849.050110,296.696533 849.440369,292.939026 
	C849.949829,288.033936 850.926697,283.159210 851.992004,278.335358 
	C852.992432,273.805237 852.259155,272.386536 847.779114,273.457428 
	C842.909851,274.621368 839.933838,273.087433 837.334045,269.225220 
	C835.954468,267.175690 833.931458,265.570312 832.364319,263.630737 
	C831.702271,262.811310 830.829712,261.364532 831.132751,260.683533 
	C835.135315,251.690323 829.752625,245.712570 824.635986,239.620575 
	C815.207214,241.378479 815.072876,241.310669 814.074097,233.971375 
	C818.574219,233.971375 823.030640,233.971375 827.708496,233.971375 
	C828.434021,229.606369 829.107483,225.554428 830.015686,220.090393 
	C820.106750,216.737183 810.211609,213.388657 799.532532,209.774826 
	C799.532532,212.743973 799.532532,214.126770 799.532532,215.737305 
	C795.062012,215.348312 790.909302,215.190689 786.825012,214.577698 
	C782.187683,213.881729 779.675110,210.330841 780.801025,206.637665 
	C781.841064,203.225922 779.004272,196.190765 776.192627,195.208939 
	C771.821411,193.682480 768.851257,195.407043 766.293091,200.487686 
	C765.324097,202.412262 763.984802,205.013000 762.277466,205.528931 
	C758.373840,206.708527 754.139099,206.792557 749.799622,207.352448 
	C748.020264,202.552597 746.239014,198.093475 744.728577,193.544479 
	C743.813843,190.789474 742.456848,189.693237 739.332703,189.849762 
	C732.740417,190.180054 726.119934,189.950272 719.400085,189.950272 
	C719.001709,186.197723 718.656372,182.944412 718.230103,178.929230 
	C709.607544,178.243835 701.341492,177.586792 692.619080,176.893478 
	C692.950256,172.723068 693.389648,167.189896 693.854248,161.338898 
	C683.752625,160.271591 674.183838,158.588043 664.598877,158.490402 
	C658.474487,158.428024 653.263123,158.972824 652.400757,150.961151 
	C649.139709,151.797531 646.468018,152.482758 643.791199,153.169312 
	C641.390015,142.144409 641.031067,140.910019 637.825195,141.081619 
	C635.339111,141.214691 632.941589,143.002960 629.454956,144.508865 
	C625.002930,140.153275 621.739929,146.606003 617.399536,148.455154 
	C616.352417,147.544022 615.410400,146.724411 614.501465,145.933533 
	C611.279846,150.786026 608.183716,155.449432 604.955383,160.311981 
	C603.570129,158.342163 602.785095,156.842987 601.640625,155.705322 
	C600.477234,154.548782 598.928711,153.789291 597.602539,152.784988 
	C592.988586,149.290710 593.100769,148.120087 597.206482,144.096344 
	C598.337585,142.987869 598.982910,140.488419 598.558105,138.995026 
	C598.263245,137.958389 595.811096,137.268875 594.218506,136.957382 
	C593.070862,136.732880 591.751465,137.386353 590.366272,137.678207 
	C589.967163,135.244659 589.609741,133.065125 589.202515,130.582260 
	C585.316284,132.301758 582.028564,133.756409 578.465149,135.333038 
	C578.237366,133.642136 578.087646,132.506149 577.930664,131.371185 
	C577.419739,127.678772 576.957397,124.037415 572.373291,122.929871 
	C567.905396,121.850380 564.471985,123.237305 561.987366,126.947433 
	C560.140869,129.704727 558.637390,132.695709 556.732788,135.408203 
	C555.887390,136.612244 554.547180,137.994492 553.229004,138.249802 
	C547.534668,139.352783 541.765381,140.068726 535.640625,140.982605 
	C534.552185,138.003967 533.537415,135.227051 532.522766,132.450134 
	C531.219177,128.882828 522.111267,122.251274 518.340271,122.622238 
	C513.802307,123.068665 509.328308,126.047806 504.788910,122.598045 
	C504.637604,122.483070 504.162720,122.724480 503.873993,122.869896 
	C496.760712,126.452263 489.569122,129.609909 485.706787,137.605255 
	C483.671204,141.819077 479.713409,145.104324 476.139801,149.388763 
	C474.306549,145.595642 473.173553,143.251419 471.989655,140.801804 
	C467.278473,142.740723 462.922089,144.533615 458.522858,146.344131 
	C457.957916,144.274780 457.553864,142.794662 457.066193,141.008408 
	C452.720581,143.709274 448.942078,146.132660 445.088745,148.430542 
	C441.538910,150.547455 437.915039,152.534088 439.053070,158.007812 
	C434.111359,155.150665 433.002991,145.265976 424.434814,151.309433 
	C425.343597,153.773666 426.206116,156.112442 427.112518,158.570175 
	C421.661774,159.590195 415.465546,156.335373 413.037964,163.483673 
	C406.992340,159.823425 406.992340,159.823425 400.492828,163.396469 
	C397.107666,161.671600 394.483490,159.656097 391.560608,159.025589 
	C388.281433,158.318222 384.732147,158.863007 381.231628,158.863007 
	C381.231628,160.986481 381.231628,162.428772 381.231628,164.117081 
	C373.258972,165.750168 365.830170,169.869064 357.352936,166.917282 
	C355.423950,166.245605 353.043732,166.545197 350.921356,166.805969 
	C336.273407,168.605820 324.272125,175.603806 313.857147,185.759552 
	C312.897217,186.695618 310.718597,187.765198 309.980743,187.320663 
	C305.287689,184.493256 301.875244,187.590759 299.872925,188.393738 
	C297.877777,194.735397 296.962463,200.005844 294.620636,204.539444 
	C291.030304,211.490112 284.667145,216.049835 277.216980,217.812271 
	C267.938812,220.007141 258.365814,220.955719 248.466736,222.513840 
	C248.439255,222.708588 248.268646,223.917206 248.123962,224.942078 
	C244.579422,223.608017 241.294510,221.460709 237.945847,221.356186 
	C234.271591,221.241531 230.484741,222.840836 226.844223,223.999023 
	C221.797379,225.604614 215.386749,234.823669 215.811447,240.054825 
	C216.055740,243.063995 215.124802,244.911377 212.713242,246.705139 
	C203.731491,253.385910 195.705872,261.662415 182.887787,262.507202 
	C186.570175,267.195892 189.746368,270.843658 192.392654,274.842163 
	C193.226089,276.101501 193.301605,278.659790 192.575546,280.002563 
	C190.499191,283.842438 186.738007,284.198578 181.156906,281.965363 
	C180.015030,281.508423 178.174500,281.448914 177.281189,282.084656 
	C176.316452,282.771210 175.293045,284.831940 175.668625,285.696960 
	C177.440567,289.778046 174.454697,290.876648 171.877640,293.069061 
	C171.151978,291.408020 170.638794,290.230164 170.123123,289.053436 
	C166.944275,281.799500 163.390213,281.141266 156.891251,286.328918 
	C155.716400,287.266693 153.745361,288.009766 152.354034,287.741669 
	C144.115112,286.154053 138.942230,290.376099 134.484512,296.434296 
	C133.012100,298.435333 130.922028,299.990448 129.505508,302.022156 
	C126.675102,306.081879 123.487656,307.710663 118.752380,305.020844 
	C117.155022,304.113464 115.119064,303.978241 112.991623,303.412506 
	C116.019249,312.233154 115.088921,315.081207 107.447464,321.209747 
	C104.065704,319.506561 100.616264,317.769318 97.047211,315.971802 
	C97.047211,319.888214 97.047211,323.184021 97.047211,326.524475 
	C106.880051,325.063446 106.880051,325.063446 108.368782,331.719696 
	C105.329155,331.397278 102.296944,331.417023 99.446564,330.706909 
	C91.990341,328.849365 87.541451,334.692535 81.838356,337.282501 
	C81.350990,337.503845 80.937355,338.807190 81.113930,339.431152 
	C83.290024,347.120728 77.180420,355.371735 83.817009,363.165222 
	C79.277275,363.165222 75.843338,363.165222 71.816650,363.165222 
	C73.754936,367.040283 75.435730,370.400543 77.013969,374.578308 
	C76.992218,375.676178 76.970474,376.774048 76.704208,378.504669 
	C72.773560,383.397034 68.842903,388.289398 64.742439,393.393127 
	C67.946190,394.614410 70.558121,395.681152 73.218636,396.608459 
	C77.735291,398.182678 82.247826,400.621674 87.157257,398.451874 
	C91.395683,396.578705 93.540947,398.298401 94.970406,402.091827 
	C92.847534,403.601959 90.475182,404.735779 88.896858,406.557556 
	C87.074333,408.661255 85.951790,411.371368 84.525299,413.818176 
	C86.943405,414.525299 89.357574,415.246429 91.782677,415.928711 
	C92.320938,416.080139 92.897728,416.094574 92.658203,416.061371 
	C89.585739,419.648468 86.493141,423.276245 83.381409,426.887543 
	C79.799606,431.044373 80.645897,433.992889 86.084801,435.201233 
	C89.255722,435.905701 92.573135,435.950867 95.884285,436.298950 
	C95.884285,437.246826 95.915062,437.908569 95.879555,438.566772 
	C95.490173,445.784973 94.891983,446.317596 87.733131,445.861206 
	C83.223526,445.573669 81.489899,447.600769 81.142654,453.567291 
	C90.362129,454.663605 90.362129,454.663605 91.731544,463.884644 
	C90.419319,464.163940 89.102364,464.444275 87.543381,464.776123 
	C88.594391,467.459534 89.467033,469.687561 90.409897,472.094879 
	C87.619286,472.990051 85.218666,473.760162 82.755348,474.550354 
	C86.913246,482.905518 98.773720,488.824493 88.550453,499.933594 
	C96.099709,500.763000 97.596809,500.529968 97.739136,497.465424 
	C97.936172,493.222656 100.489609,491.888275 103.735374,490.674988 
	C107.004456,489.452972 110.198303,488.030457 113.431358,486.711121 
	C117.407455,485.088501 122.314949,484.249908 119.826920,477.322052 
	C124.945564,478.370422 129.122864,479.226013 131.906525,479.796143 
	C136.625839,476.489594 140.476624,473.791565 144.566147,470.926239 
	C146.960190,476.624695 149.876480,481.424255 147.871735,487.550842 
	C147.100540,489.907623 147.521957,492.968781 148.310547,495.415527 
	C148.870605,497.153107 150.707428,498.874298 152.412109,499.766754 
	C156.125870,501.711029 160.119171,503.121368 164.517944,504.968140 
	C166.052795,503.957275 168.361557,502.436707 171.163589,500.591278 
	C171.462769,503.638611 172.037094,506.117950 171.873367,508.547485 
	C171.565887,513.109741 173.492340,515.742676 177.814087,516.866821 
	C185.467468,518.857727 189.876663,523.739624 190.931259,531.625427 
	C191.061966,532.602905 191.589096,533.524780 191.741150,534.502258 
	C192.453568,539.082031 196.568298,538.631287 199.513718,539.306519 
	C200.673477,539.572327 202.719940,537.685425 203.780945,536.325134 
	C206.334656,533.051025 208.898407,529.692932 210.805359,526.029053 
	C213.273758,521.286499 216.277023,519.330444 221.326324,522.118835 
	C221.534973,522.234070 221.946381,521.982178 222.500168,521.840881 
	C223.384888,518.648132 224.301987,515.338684 225.276474,511.822083 
	C228.088699,512.683655 230.547592,513.436951 233.639297,514.384155 
	C225.858063,525.741211 225.212524,538.139893 226.009796,550.615601 
	C226.749512,562.190308 228.316345,573.712585 229.565842,585.252869 
	C229.627029,585.817932 230.137695,586.334351 230.584457,587.133484 
	C231.250244,586.220520 232.146317,585.560852 232.119995,584.940430 
	C231.838837,578.317078 232.372482,571.462402 230.808624,565.134399 
	C228.188431,554.531860 228.730118,544.344360 231.817230,534.134521 
	C232.406830,532.184509 233.650284,529.964539 235.269318,528.881409 
	C240.096359,525.651978 240.643433,522.251465 237.979263,517.091187 
	C234.042023,509.465088 235.333771,504.061279 241.791779,498.328400 
	C244.006729,500.941071 247.059143,503.217529 248.228561,506.225952 
	C250.061188,510.940552 252.775162,512.599121 257.506897,511.738098 
	C258.251434,511.602600 259.062653,511.833374 259.896240,511.898987 
	C261.495880,523.371216 263.050232,534.518799 264.604584,545.666382 
	C269.177734,534.557983 263.972900,523.553711 263.506165,511.866180 
	C266.320862,512.589111 268.326813,512.837036 270.101898,513.612976 
	C274.524567,515.546204 274.873871,519.111267 272.206360,523.015747 
	C270.561584,525.423218 270.301086,528.776489 269.429596,531.670166 
	C273.039856,531.512146 275.422211,531.407837 277.706207,531.273193 
	C277.706207,531.273193 277.780396,531.323181 277.125092,531.619568 
	C271.560211,537.384155 269.995270,544.637695 270.070099,552.996521 
	C274.938507,548.789795 279.806946,544.583130 284.924530,540.161133 
	C288.925323,547.448608 292.590454,554.124695 296.575195,561.382935 
	C298.269501,557.300720 299.594238,554.108948 300.950012,550.842407 
	C309.247009,550.804932 317.470001,555.849670 325.793945,548.971497 
	C326.176941,552.379333 326.623016,554.616394 326.647247,556.857910 
	C326.764374,567.678162 326.654144,578.502197 326.905426,589.318420 
	C326.957245,591.548767 328.206512,593.751282 328.903870,595.966675 
	C329.395966,595.825684 329.888092,595.684753 330.380219,595.543762 
	C330.380219,585.900330 330.598602,576.249817 330.286896,566.616455 
	C330.133942,561.890259 329.231598,557.146362 328.250488,552.498718 
	C326.822357,545.733704 326.036743,538.873718 331.605438,533.834900 
	C335.869873,529.976196 340.209320,526.872009 336.661743,520.366943 
	C341.354553,520.366943 345.277161,520.366943 349.413696,520.366943 
	C349.607544,522.583496 349.777405,524.525696 349.953583,526.540283 
	C347.934265,527.307861 345.960510,527.774841 344.320953,528.784485 
	C343.288574,529.420288 341.934326,531.058716 342.133606,531.922180 
	C343.441223,537.588196 342.561798,542.632080 338.993927,547.257996 
	C338.456909,547.954285 338.443604,549.054382 338.107758,550.254517 
	C340.099304,550.254517 341.698151,550.254517 343.527496,550.254517 
	C343.660950,548.814941 343.775696,547.577209 343.936768,545.839722 
	C347.001587,547.637024 349.546967,549.590271 352.419800,550.680786 
	C355.123047,551.706848 358.193268,552.232971 361.054901,552.082458 
	C361.881989,552.039001 362.398560,548.813965 363.346741,547.219482 
	C363.832703,546.402283 364.922791,545.504578 365.799072,545.439331 
	C368.757874,545.219177 371.743164,545.355469 374.788269,545.355469 
	C375.317413,548.091858 375.780151,550.484680 376.232056,552.821655 
	C378.102295,552.821655 379.682220,552.821655 381.186707,552.821655 
	C381.186707,551.037659 381.186707,549.549866 381.800934,548.080994 
	C382.210144,548.057739 382.619354,548.034424 383.570862,547.992615 
	C383.751312,547.980530 383.931793,547.968445 384.929840,547.985413 
	C386.289032,548.040039 387.648193,548.094666 389.319977,548.567993 
z"/>
<path fill="#222014" opacity="1.000000" stroke="none" 
	d="
M319.736816,684.386719 
	C314.836304,684.239807 308.038727,682.062378 305.495544,684.438538 
	C301.989716,687.713928 299.004517,687.714233 295.318970,687.754395 
	C294.160400,687.766968 293.000305,687.231689 291.833130,686.983826 
	C290.802307,686.764832 289.207367,686.075012 288.814270,686.491760 
	C286.396698,689.054688 283.887177,689.637024 280.282959,689.102783 
	C275.000366,688.319580 269.525787,690.259827 264.440277,686.330872 
	C262.321259,684.693787 257.716187,684.075073 255.419434,685.265625 
	C247.420380,689.412048 239.827789,686.264526 232.034760,685.458069 
	C228.524033,685.094727 224.922211,685.690735 221.382980,685.485229 
	C219.932602,685.401062 218.587616,684.148010 217.106857,683.785889 
	C215.017044,683.274841 212.814880,682.705200 210.716537,682.870178 
	C207.670258,683.109680 205.379395,683.160278 207.018814,678.598083 
	C204.646835,679.261841 202.980118,679.728210 201.323883,680.191650 
	C202.619431,681.049622 203.846558,681.862305 205.073685,682.674927 
	C204.949615,683.084656 204.825546,683.494385 204.701477,683.904053 
	C197.643005,683.468262 190.584549,683.032410 183.212845,682.577209 
	C182.420105,683.740540 181.443405,685.173828 180.272430,686.892151 
	C171.966675,685.621094 163.468597,684.320557 154.429062,682.937134 
	C155.295242,682.028442 155.848038,681.448547 156.329773,680.943176 
	C147.316483,679.734619 138.328369,678.529480 130.234329,677.444214 
	C128.748398,674.040344 127.314507,670.755676 125.748024,667.167297 
	C133.904251,666.588501 141.817261,666.028198 149.729996,665.464111 
	C150.862183,665.383423 152.212387,665.655273 153.089966,665.135925 
	C160.250427,660.898071 168.010742,663.809021 175.452118,663.097656 
	C181.989716,662.472595 188.528793,661.567383 195.077835,661.465027 
	C199.235382,661.399963 203.611038,661.999268 207.529175,663.346619 
	C212.184677,664.947632 216.439072,666.445984 221.331406,664.230103 
	C222.800095,663.564941 224.931992,664.030579 226.679733,664.380005 
	C231.142883,665.272339 234.563156,662.085205 238.410263,661.500183 
	C247.773132,660.076233 257.319000,659.759644 266.805206,659.268127 
	C277.363464,658.721130 287.939728,658.526855 298.501251,658.031616 
	C299.854858,657.968140 301.510254,657.359802 302.440887,656.422791 
	C307.406189,651.423645 318.181152,651.500366 321.993683,655.759155 
	C327.421967,656.161438 331.901031,656.643311 336.390961,656.787720 
	C341.860168,656.963867 347.338531,656.865906 352.812836,656.854431 
	C353.295898,656.853394 353.776245,656.513367 354.261597,656.502747 
	C361.045624,656.354126 367.834778,656.016968 374.613800,656.156982 
	C386.947113,656.411743 399.313324,656.491760 411.592133,657.522400 
	C421.531891,658.356750 431.119232,656.690491 440.697601,655.001221 
	C444.213654,654.381104 447.610168,651.839111 450.541809,649.517822 
	C453.190796,647.420410 454.790405,644.070862 459.148010,644.830688 
	C459.917694,644.964905 461.696045,642.717834 462.035797,641.331970 
	C463.611359,634.905518 465.836029,628.416687 465.978455,621.909729 
	C466.221710,610.795654 465.490356,599.612244 464.429504,588.528748 
	C462.776062,571.253967 452.676178,558.903503 438.747131,549.994751 
	C427.590515,542.859070 415.416473,537.314209 403.250366,530.603394 
	C402.428619,529.638428 402.050476,529.133545 401.617493,528.203003 
	C401.562653,525.182434 401.562653,522.587524 401.562653,519.475098 
	C395.646698,520.253296 390.468506,520.934448 384.961334,521.658875 
	C386.510437,525.740234 387.430847,528.999512 383.337769,531.681274 
	C382.152374,532.457947 382.239227,535.176270 381.402893,537.124390 
	C380.926636,538.507263 380.790344,539.770325 380.623444,541.447021 
	C380.755432,543.231812 380.917999,544.603088 380.990356,546.322876 
	C380.995667,547.134949 381.091156,547.598511 381.186707,548.062073 
	C381.186707,549.549866 381.186707,551.037659 381.186707,552.821655 
	C379.682220,552.821655 378.102295,552.821655 376.232056,552.821655 
	C375.780151,550.484680 375.317413,548.091858 374.788269,545.355469 
	C371.743164,545.355469 368.757874,545.219177 365.799072,545.439331 
	C364.922791,545.504578 363.832703,546.402283 363.346741,547.219482 
	C362.398560,548.813965 361.881989,552.039001 361.054901,552.082458 
	C358.193268,552.232971 355.123047,551.706848 352.419800,550.680786 
	C349.546967,549.590271 347.001587,547.637024 343.936768,545.839722 
	C343.775696,547.577209 343.660950,548.814941 343.527496,550.254517 
	C341.698151,550.254517 340.099304,550.254517 338.107758,550.254517 
	C338.443604,549.054382 338.456909,547.954285 338.993927,547.257996 
	C342.561798,542.632080 343.441223,537.588196 342.133606,531.922180 
	C341.934326,531.058716 343.288574,529.420288 344.320953,528.784485 
	C345.960510,527.774841 347.934265,527.307861 349.953583,526.540283 
	C349.777405,524.525696 349.607544,522.583496 349.413696,520.366943 
	C345.277161,520.366943 341.354553,520.366943 336.661743,520.366943 
	C340.209320,526.872009 335.869873,529.976196 331.605438,533.834900 
	C326.036743,538.873718 326.822357,545.733704 328.250488,552.498718 
	C329.231598,557.146362 330.133942,561.890259 330.286896,566.616455 
	C330.598602,576.249817 330.380219,585.900330 330.380219,595.543762 
	C329.888092,595.684753 329.395966,595.825684 328.903870,595.966675 
	C328.206512,593.751282 326.957245,591.548767 326.905426,589.318420 
	C326.654144,578.502197 326.764374,567.678162 326.647247,556.857910 
	C326.623016,554.616394 326.176941,552.379333 325.793945,548.971497 
	C317.470001,555.849670 309.247009,550.804932 300.950012,550.842407 
	C299.594238,554.108948 298.269501,557.300720 296.575195,561.382935 
	C292.590454,554.124695 288.925323,547.448608 284.924530,540.161133 
	C279.806946,544.583130 274.938507,548.789795 270.070099,552.996521 
	C269.995270,544.637695 271.560211,537.384155 277.244080,531.294922 
	C277.314240,530.841675 277.265472,530.712952 277.216736,530.584290 
	C277.143127,530.637817 277.069550,530.691345 276.995972,530.744812 
	C277.265503,530.931030 277.535034,531.117310 277.804565,531.303589 
	C275.422211,531.407837 273.039856,531.512146 269.429596,531.670166 
	C270.301086,528.776489 270.561584,525.423218 272.206360,523.015747 
	C274.873871,519.111267 274.524567,515.546204 270.101898,513.612976 
	C268.326813,512.837036 266.320862,512.589111 263.506165,511.866180 
	C263.972900,523.553711 269.177734,534.557983 264.604584,545.666382 
	C263.050232,534.518799 261.495880,523.371216 259.896240,511.898987 
	C259.062653,511.833374 258.251434,511.602600 257.506897,511.738098 
	C252.775162,512.599121 250.061188,510.940552 248.228561,506.225952 
	C247.059143,503.217529 244.006729,500.941071 241.791779,498.328400 
	C235.333771,504.061279 234.042023,509.465088 237.979263,517.091187 
	C240.643433,522.251465 240.096359,525.651978 235.269318,528.881409 
	C233.650284,529.964539 232.406830,532.184509 231.817230,534.134521 
	C228.730118,544.344360 228.188431,554.531860 230.808624,565.134399 
	C232.372482,571.462402 231.838837,578.317078 232.119995,584.940430 
	C232.146317,585.560852 231.250244,586.220520 230.584457,587.133484 
	C230.137695,586.334351 229.627029,585.817932 229.565842,585.252869 
	C228.316345,573.712585 226.749512,562.190308 226.009796,550.615601 
	C225.212524,538.139893 225.858063,525.741211 233.639297,514.384155 
	C230.547592,513.436951 228.088699,512.683655 225.276474,511.822083 
	C224.301987,515.338684 223.384888,518.648132 222.500168,521.840881 
	C221.946381,521.982178 221.534973,522.234070 221.326324,522.118835 
	C216.277023,519.330444 213.273758,521.286499 210.805359,526.029053 
	C208.898407,529.692932 206.334656,533.051025 203.780945,536.325134 
	C202.719940,537.685425 200.673477,539.572327 199.513718,539.306519 
	C196.568298,538.631287 192.453568,539.082031 191.741150,534.502258 
	C191.589096,533.524780 191.061966,532.602905 190.931259,531.625427 
	C189.876663,523.739624 185.467468,518.857727 177.814087,516.866821 
	C173.492340,515.742676 171.565887,513.109741 171.873367,508.547485 
	C172.037094,506.117950 171.462769,503.638611 171.163589,500.591278 
	C168.361557,502.436707 166.052795,503.957275 164.517944,504.968140 
	C160.119171,503.121368 156.125870,501.711029 152.412109,499.766754 
	C150.707428,498.874298 148.870605,497.153107 148.310547,495.415527 
	C147.521957,492.968781 147.100540,489.907623 147.871735,487.550842 
	C149.876480,481.424255 146.960190,476.624695 144.566147,470.926239 
	C140.476624,473.791565 136.625839,476.489594 131.906525,479.796143 
	C129.122864,479.226013 124.945564,478.370422 119.826920,477.322052 
	C122.314949,484.249908 117.407455,485.088501 113.431358,486.711121 
	C110.198303,488.030457 107.004456,489.452972 103.735374,490.674988 
	C100.489609,491.888275 97.936172,493.222656 97.739136,497.465424 
	C97.596809,500.529968 96.099709,500.763000 88.550453,499.933594 
	C98.773720,488.824493 86.913246,482.905518 82.755348,474.550354 
	C85.218666,473.760162 87.619286,472.990051 90.409897,472.094879 
	C89.467033,469.687561 88.594391,467.459534 87.543381,464.776123 
	C89.102364,464.444275 90.419319,464.163940 91.731544,463.884644 
	C90.362129,454.663605 90.362129,454.663605 81.142654,453.567291 
	C81.489899,447.600769 83.223526,445.573669 87.733131,445.861206 
	C94.891983,446.317596 95.490173,445.784973 95.879555,438.566772 
	C95.915062,437.908569 95.884285,437.246826 95.884285,436.298950 
	C92.573135,435.950867 89.255722,435.905701 86.084801,435.201233 
	C80.645897,433.992889 79.799606,431.044373 83.381409,426.887543 
	C86.493141,423.276245 89.585739,419.648468 92.658203,416.061371 
	C92.897728,416.094574 92.320938,416.080139 91.782677,415.928711 
	C89.357574,415.246429 86.943405,414.525299 84.525299,413.818176 
	C85.951790,411.371368 87.074333,408.661255 88.896858,406.557556 
	C90.475182,404.735779 92.847534,403.601959 94.970406,402.091827 
	C93.540947,398.298401 91.395683,396.578705 87.157257,398.451874 
	C82.247826,400.621674 77.735291,398.182678 73.218636,396.608459 
	C70.558121,395.681152 67.946190,394.614410 64.742439,393.393127 
	C68.842903,388.289398 72.773560,383.397034 77.146057,378.013855 
	C78.281593,377.469513 79.490463,377.176300 79.593475,377.397614 
	C82.050621,382.678253 86.443947,381.030487 90.837929,380.838257 
	C90.535301,379.101257 90.290558,377.696503 90.009529,376.083527 
	C87.647186,376.083527 85.459732,376.385406 83.400597,376.000610 
	C81.241776,375.597198 79.206047,374.535034 77.116516,373.760803 
	C75.435730,370.400543 73.754936,367.040283 71.816650,363.165222 
	C75.843338,363.165222 79.277275,363.165222 83.817009,363.165222 
	C77.180420,355.371735 83.290024,347.120728 81.113930,339.431152 
	C80.937355,338.807190 81.350990,337.503845 81.838356,337.282501 
	C87.541451,334.692535 91.990341,328.849365 99.446564,330.706909 
	C102.296944,331.417023 105.329155,331.397278 108.368782,331.719696 
	C106.880051,325.063446 106.880051,325.063446 97.047211,326.524475 
	C97.047211,323.184021 97.047211,319.888214 97.047211,315.971802 
	C100.616264,317.769318 104.065704,319.506561 107.447464,321.209747 
	C115.088921,315.081207 116.019249,312.233154 112.991623,303.412506 
	C115.119064,303.978241 117.155022,304.113464 118.752380,305.020844 
	C123.487656,307.710663 126.675102,306.081879 129.505508,302.022156 
	C130.922028,299.990448 133.012100,298.435333 134.484512,296.434296 
	C138.942230,290.376099 144.115112,286.154053 152.354034,287.741669 
	C153.745361,288.009766 155.716400,287.266693 156.891251,286.328918 
	C163.390213,281.141266 166.944275,281.799500 170.123123,289.053436 
	C170.638794,290.230164 171.151978,291.408020 171.877640,293.069061 
	C174.454697,290.876648 177.440567,289.778046 175.668625,285.696960 
	C175.293045,284.831940 176.316452,282.771210 177.281189,282.084656 
	C178.174500,281.448914 180.015030,281.508423 181.156906,281.965363 
	C186.738007,284.198578 190.499191,283.842438 192.575546,280.002563 
	C193.301605,278.659790 193.226089,276.101501 192.392654,274.842163 
	C189.746368,270.843658 186.570175,267.195892 182.887787,262.507202 
	C195.705872,261.662415 203.731491,253.385910 212.713242,246.705139 
	C215.124802,244.911377 216.055740,243.063995 215.811447,240.054825 
	C215.386749,234.823669 221.797379,225.604614 226.844223,223.999023 
	C230.484741,222.840836 234.271591,221.241531 237.945847,221.356186 
	C241.294510,221.460709 244.579422,223.608017 248.123962,224.942078 
	C248.268646,223.917206 248.439255,222.708588 248.466736,222.513840 
	C258.365814,220.955719 267.938812,220.007141 277.216980,217.812271 
	C284.667145,216.049835 291.030304,211.490112 294.620636,204.539444 
	C296.962463,200.005844 297.877777,194.735397 299.872925,188.393738 
	C301.875244,187.590759 305.287689,184.493256 309.980743,187.320663 
	C310.718597,187.765198 312.897217,186.695618 313.857147,185.759552 
	C324.272125,175.603806 336.273407,168.605820 350.921356,166.805969 
	C353.043732,166.545197 355.423950,166.245605 357.352936,166.917282 
	C365.830170,169.869064 373.258972,165.750168 381.231628,164.117081 
	C381.231628,162.428772 381.231628,160.986481 381.231628,158.863007 
	C384.732147,158.863007 388.281433,158.318222 391.560608,159.025589 
	C394.483490,159.656097 397.107666,161.671600 400.492828,163.396469 
	C406.992340,159.823425 406.992340,159.823425 413.037964,163.483673 
	C415.465546,156.335373 421.661774,159.590195 427.112518,158.570175 
	C426.206116,156.112442 425.343597,153.773666 424.434814,151.309433 
	C433.002991,145.265976 434.111359,155.150665 439.053070,158.007812 
	C437.915039,152.534088 441.538910,150.547455 445.088745,148.430542 
	C448.942078,146.132660 452.720581,143.709274 457.066193,141.008408 
	C457.553864,142.794662 457.957916,144.274780 458.522858,146.344131 
	C462.922089,144.533615 467.278473,142.740723 471.989655,140.801804 
	C473.173553,143.251419 474.306549,145.595642 476.139801,149.388763 
	C479.713409,145.104324 483.671204,141.819077 485.706787,137.605255 
	C489.569122,129.609909 496.760712,126.452263 503.873993,122.869896 
	C504.162720,122.724480 504.637604,122.483070 504.788910,122.598045 
	C509.328308,126.047806 513.802307,123.068665 518.340271,122.622238 
	C522.111267,122.251274 531.219177,128.882828 532.522766,132.450134 
	C533.537415,135.227051 534.552185,138.003967 535.640625,140.982605 
	C541.765381,140.068726 547.534668,139.352783 553.229004,138.249802 
	C554.547180,137.994492 555.887390,136.612244 556.732788,135.408203 
	C558.637390,132.695709 560.140869,129.704727 561.987366,126.947433 
	C564.471985,123.237305 567.905396,121.850380 572.373291,122.929871 
	C576.957397,124.037415 577.419739,127.678772 577.930664,131.371185 
	C578.087646,132.506149 578.237366,133.642136 578.465149,135.333038 
	C582.028564,133.756409 585.316284,132.301758 589.202515,130.582260 
	C589.609741,133.065125 589.967163,135.244659 590.366272,137.678207 
	C591.751465,137.386353 593.070862,136.732880 594.218506,136.957382 
	C595.811096,137.268875 598.263245,137.958389 598.558105,138.995026 
	C598.982910,140.488419 598.337585,142.987869 597.206482,144.096344 
	C593.100769,148.120087 592.988586,149.290710 597.602539,152.784988 
	C598.928711,153.789291 600.477234,154.548782 601.640625,155.705322 
	C602.785095,156.842987 603.570129,158.342163 604.955383,160.311981 
	C608.183716,155.449432 611.279846,150.786026 614.501465,145.933533 
	C615.410400,146.724411 616.352417,147.544022 617.399536,148.455154 
	C621.739929,146.606003 625.002930,140.153275 629.454956,144.508865 
	C632.941589,143.002960 635.339111,141.214691 637.825195,141.081619 
	C641.031067,140.910019 641.390015,142.144409 643.791199,153.169312 
	C646.468018,152.482758 649.139709,151.797531 652.400757,150.961151 
	C653.263123,158.972824 658.474487,158.428024 664.598877,158.490402 
	C674.183838,158.588043 683.752625,160.271591 693.854248,161.338898 
	C693.389648,167.189896 692.950256,172.723068 692.619080,176.893478 
	C701.341492,177.586792 709.607544,178.243835 718.230103,178.929230 
	C718.656372,182.944412 719.001709,186.197723 719.400085,189.950272 
	C726.119934,189.950272 732.740417,190.180054 739.332703,189.849762 
	C742.456848,189.693237 743.813843,190.789474 744.728577,193.544479 
	C746.239014,198.093475 748.020264,202.552597 749.799622,207.352448 
	C754.139099,206.792557 758.373840,206.708527 762.277466,205.528931 
	C763.984802,205.013000 765.324097,202.412262 766.293091,200.487686 
	C768.851257,195.407043 771.821411,193.682480 776.192627,195.208939 
	C779.004272,196.190765 781.841064,203.225922 780.801025,206.637665 
	C779.675110,210.330841 782.187683,213.881729 786.825012,214.577698 
	C790.909302,215.190689 795.062012,215.348312 799.532532,215.737305 
	C799.532532,214.126770 799.532532,212.743973 799.532532,209.774826 
	C810.211609,213.388657 820.106750,216.737183 830.015686,220.090393 
	C829.107483,225.554428 828.434021,229.606369 827.708496,233.971375 
	C823.030640,233.971375 818.574219,233.971375 814.074097,233.971375 
	C815.072876,241.310669 815.207214,241.378479 824.635986,239.620575 
	C829.752625,245.712570 835.135315,251.690323 831.132751,260.683533 
	C830.829712,261.364532 831.702271,262.811310 832.364319,263.630737 
	C833.931458,265.570312 835.954468,267.175690 837.334045,269.225220 
	C839.933838,273.087433 842.909851,274.621368 847.779114,273.457428 
	C852.259155,272.386536 852.992432,273.805237 851.992004,278.335358 
	C850.926697,283.159210 849.949829,288.033936 849.440369,292.939026 
	C849.050110,296.696533 851.208801,298.850647 854.948120,300.032288 
	C860.802490,301.882294 866.519958,304.191040 872.225586,306.479462 
	C877.957886,308.778564 879.879211,313.446198 881.042175,319.306030 
	C882.108582,324.679230 884.699219,329.810394 887.105652,334.813782 
	C887.690125,336.028961 890.131714,336.523743 891.817505,337.009216 
	C906.080872,341.116943 917.133423,349.158295 923.932434,362.709442 
	C916.043213,364.479645 915.649658,365.205078 916.588135,372.808258 
	C916.758179,374.185883 915.806152,376.135223 914.734375,377.141205 
	C912.618347,379.127411 910.055908,380.638031 906.528687,383.170471 
	C914.994385,383.178986 922.893738,381.849731 926.317505,391.096252 
	C923.258789,392.743866 919.826782,394.592560 916.095520,396.602417 
	C918.980347,399.715637 921.626953,402.571777 924.273560,405.427948 
	C924.088684,405.686157 923.903748,405.944397 923.718811,406.202637 
	C920.299133,405.104248 916.902649,403.925354 913.453186,402.929871 
	C909.917786,401.909576 906.158447,400.602325 903.583191,404.659180 
	C901.604919,407.775635 903.312134,415.701019 906.277161,418.232025 
	C906.763428,418.647186 907.239929,419.073914 908.140015,419.862305 
	C910.295776,416.311859 912.322266,412.974243 914.335693,409.658234 
	C920.699768,412.778046 926.030090,421.150116 924.696167,427.643219 
	C924.220581,429.958313 920.510559,431.608917 918.276917,433.562866 
	C917.745300,433.347351 917.213684,433.131866 916.682068,432.916382 
	C917.754211,435.766693 918.633667,438.708618 919.936584,441.449280 
	C923.149536,448.207611 926.577148,454.863647 929.870239,461.584442 
	C930.599854,463.073669 931.236145,464.627228 931.734192,466.208252 
	C934.227966,474.125519 934.170959,479.644501 922.818787,479.738068 
	C912.432007,479.823730 909.877869,483.056641 909.390259,493.537354 
	C909.129517,499.143494 907.560364,500.237061 902.147522,498.502350 
	C900.407227,497.944641 898.506653,497.554230 897.029114,496.564941 
	C888.629028,490.940674 879.231812,490.685120 869.697510,491.356476 
	C866.445862,491.585419 864.219177,490.688599 862.999756,487.619995 
	C862.938416,487.465546 862.893616,487.274994 862.777344,487.176178 
	C860.355896,485.118683 857.709290,481.226776 855.550049,481.479645 
	C852.706116,481.812683 850.243713,485.404114 847.617310,487.594604 
	C847.913025,487.994659 848.208740,488.394714 848.504456,488.794739 
	C850.270325,488.936371 852.036194,489.077972 854.046021,489.239136 
	C853.108032,492.651306 852.243103,495.797546 851.188843,499.632812 
	C846.520508,496.465973 842.238586,493.561249 836.686523,489.794891 
	C837.965149,492.944702 838.660278,494.657104 839.409546,496.502838 
	C834.726929,498.689331 833.120178,502.556610 832.918030,507.356689 
	C832.568237,515.661194 831.665161,516.663635 823.507629,517.923523 
	C820.887512,518.328247 818.211670,518.570862 815.567139,518.527954 
	C814.389099,518.508850 812.341553,517.783569 812.192627,517.066467 
	C810.761597,510.175049 806.861694,513.962158 804.029480,515.276062 
	C799.092102,517.566650 794.453552,520.495117 789.553589,522.875854 
	C787.692444,523.780151 785.455139,523.910278 783.647705,524.332764 
	C781.345825,520.002808 779.286743,516.129517 777.102112,512.020020 
	C778.183777,511.262848 779.355347,510.442780 781.465698,508.965546 
	C773.004822,509.563965 767.818970,500.718506 759.349426,504.620819 
	C757.863464,509.815125 760.373657,514.380920 762.601685,518.995850 
	C765.498108,524.995300 765.172668,526.361389 759.847534,530.216675 
	C753.410950,534.876648 752.557190,537.991821 754.817810,545.652893 
	C755.836060,549.103699 756.449219,552.777771 756.561829,556.372009 
	C756.869690,566.196594 756.856384,576.032593 756.856140,585.864075 
	C756.856140,587.326965 756.239990,588.789795 755.908875,590.252686 
	C755.420349,590.202942 754.931824,590.153198 754.443237,590.103394 
	C754.258545,588.913818 753.938599,587.727478 753.910522,586.534241 
	C753.687073,577.038818 753.779358,567.527039 753.231201,558.051697 
	C752.928223,552.814392 751.792480,547.586670 750.565186,542.466492 
	C750.227783,541.059082 748.412109,539.485291 746.929138,538.955750 
	C735.508484,534.877991 724.041260,530.919861 712.509888,527.166321 
	C704.605103,524.593323 696.428650,522.794495 688.666443,519.871765 
	C685.235901,518.580017 682.530945,515.361267 679.345215,512.900452 
	C677.412659,515.452393 676.580566,517.856567 679.988220,520.571899 
	C681.686646,521.925232 682.596008,524.268738 684.157471,526.606140 
	C671.961548,527.166626 675.837280,517.367676 673.151062,511.507843 
	C671.131836,512.240662 669.006592,513.012024 666.136597,514.053650 
	C670.854431,522.807983 675.372559,531.191650 680.571655,540.838928 
	C674.134949,537.673706 668.867676,532.962769 661.044373,538.045227 
	C663.137878,532.727234 664.562988,529.107117 666.160156,525.049744 
	C664.654846,524.893005 663.473938,524.770020 662.293030,524.647034 
	C662.591858,525.028625 662.890747,525.410278 663.189575,525.791870 
	C661.079712,528.407959 659.451050,531.772400 656.768250,533.497864 
	C649.170715,538.384338 646.454407,543.074890 649.590393,552.780151 
	C651.369324,558.285583 650.537415,564.656921 650.678528,570.643127 
	C650.697937,571.466736 649.543518,572.317993 648.599182,573.614014 
	C648.045105,572.430786 647.594849,571.897217 647.564819,571.341003 
	C647.072937,562.237915 646.827576,553.152527 644.059570,544.282837 
	C643.308960,541.877563 643.946411,538.395935 645.224976,536.129456 
	C648.224976,530.811523 648.805359,526.377930 642.738953,522.605591 
	C641.760864,522.789124 640.346069,523.054565 638.989258,523.309143 
	C635.177979,512.927185 635.177979,512.927185 631.982727,511.896912 
	C633.944092,517.934021 629.823303,520.372253 625.832092,522.912476 
	C619.071716,527.215027 617.807434,530.801575 620.122681,538.483215 
	C620.689453,540.363708 621.243225,542.348511 621.239868,544.284485 
	C621.213867,559.448425 621.056213,574.612183 620.913147,589.775757 
	C620.906067,590.527100 620.658203,591.276123 620.522522,592.026245 
	C620.074951,592.117615 619.627319,592.208984 619.179749,592.300354 
	C618.798523,590.893799 618.108276,589.492371 618.084961,588.079956 
	C617.892334,576.416992 618.018982,564.745422 617.628601,553.090576 
	C617.453064,547.850037 616.293945,542.644897 615.630371,537.417419 
	C615.215271,534.146606 614.892029,530.864075 614.413452,527.389282 
	C614.367188,526.941406 614.434998,526.691101 614.502808,526.440735 
	C614.343628,526.635315 614.184570,526.829895 614.025452,527.024475 
	C608.181213,530.007446 602.336914,532.990479 596.564880,535.936584 
	C599.582642,543.888733 599.657654,544.181885 592.688843,549.016113 
	C588.158325,552.158936 586.471313,556.459045 588.318298,561.142639 
	C592.546997,571.866333 589.739929,582.916321 591.093628,593.731323 
	C590.579041,594.034180 590.064453,594.337036 589.549927,594.639954 
	C588.372253,592.957336 586.333679,591.357361 586.163025,589.578186 
	C585.338257,580.980469 584.745667,572.338623 584.617676,563.704224 
	C584.541931,558.595642 585.051392,553.378052 586.139709,548.393250 
	C586.718262,545.743103 589.091064,543.484741 591.107178,540.343262 
	C589.761963,540.343262 588.498779,539.968933 587.634521,540.397949 
	C565.248413,551.510986 544.380676,564.456604 529.035889,585.037415 
	C523.167053,592.908936 523.508118,601.312378 524.279114,609.750793 
	C525.539307,623.544861 528.007568,637.228760 537.357056,648.357605 
	C538.687134,649.940796 540.800354,651.085876 542.776428,651.853699 
	C545.543945,652.929077 548.150085,653.723816 550.818420,655.520508 
	C554.110107,657.736938 559.214661,657.976868 563.502075,657.857666 
	C574.177246,657.560730 584.826965,656.450867 595.499329,655.915771 
	C601.698608,655.604980 608.605774,654.022705 613.980652,656.121155 
	C622.953674,659.624451 631.516541,655.149231 640.296021,657.145935 
	C645.410950,658.309204 651.202820,656.388916 656.701416,656.030823 
	C658.615112,655.906250 660.562988,656.307068 662.699585,656.484924 
	C665.473877,653.687012 677.456787,650.709900 680.447510,653.390320 
	C692.040771,663.780884 705.789429,657.815735 718.531311,659.187683 
	C725.924805,659.983704 733.341919,660.634705 740.765259,661.049316 
	C745.211121,661.297607 749.305054,662.036255 753.186707,664.468140 
	C754.472900,665.273926 756.738647,664.598938 758.547607,664.472778 
	C765.272400,664.003601 772.148560,667.047180 778.751099,662.855774 
	C784.274170,659.349487 790.538147,662.183289 796.440735,662.062561 
	C805.898804,661.869141 815.386169,662.285278 824.835205,662.865417 
	C828.811157,663.109497 832.687317,664.695618 836.668579,665.199280 
	C843.898804,666.114075 851.173828,666.675537 858.836792,667.424133 
	C857.244873,670.631897 855.611145,673.923828 853.897766,677.376221 
	C845.822693,678.483826 836.817810,679.718994 827.633545,680.978699 
	C827.987366,681.355530 828.515259,681.917725 829.440613,682.903198 
	C820.421936,684.271851 811.723206,685.591919 803.229004,686.880981 
	C802.280945,685.256592 801.475647,683.876770 800.698059,682.544556 
	C793.510864,683.001892 786.361389,683.456848 779.211853,683.911804 
	C779.036621,683.492249 778.861328,683.072693 778.686096,682.653198 
	C780.716675,681.604736 782.747314,680.556274 785.585815,679.090698 
	C781.767334,679.090698 778.794067,679.090698 775.258179,679.090698 
	C775.892639,680.131958 776.276062,680.761169 776.996887,681.944153 
	C768.697021,682.643127 761.312378,686.869751 752.749573,685.353333 
	C749.618286,684.798767 746.162048,686.160706 742.843628,686.561768 
	C738.107239,687.134216 733.654907,688.364502 728.712402,685.545898 
	C726.461365,684.262085 722.052734,686.695007 718.646545,687.538147 
	C717.395630,687.847717 716.238770,688.736206 714.995178,688.841125 
	C709.927124,689.268921 704.842224,689.499878 699.762573,689.785767 
	C699.440247,689.803955 698.951477,689.790771 698.805664,689.594727 
	C694.628113,683.974487 689.380432,688.569031 684.700012,687.963562 
	C682.960449,687.738464 681.430359,685.953247 679.785156,684.910278 
	C679.174744,684.523254 678.523376,683.966675 677.865112,683.928467 
	C674.211243,683.716736 670.549805,683.631653 666.890198,683.529663 
	C666.407837,683.516235 665.655945,683.476990 665.475403,683.747620 
	C661.039795,690.395935 655.068359,686.415771 649.666992,686.007263 
	C647.126221,685.815002 644.726624,683.386597 642.186829,686.866699 
	C641.359497,688.000183 637.946838,687.345642 635.717041,687.339905 
	C625.334290,687.313049 614.949951,687.316284 604.570129,687.109619 
	C601.315430,687.044800 597.597656,687.660095 595.720703,683.595459 
	C595.487854,683.091370 593.929504,683.074951 592.979736,683.050293 
	C590.320801,682.981140 587.658936,683.026184 584.962402,683.362549 
	C586.236267,683.623169 587.510071,683.883728 588.783936,684.144287 
	C588.746765,683.990601 588.709534,683.836914 588.672363,683.683228 
	C572.770264,683.683228 556.858521,684.042419 540.967896,683.615417 
	C494.289551,682.361206 447.678253,682.970337 401.082153,686.388977 
	C388.227570,687.332092 375.220673,686.069641 362.283722,686.073975 
	C356.047974,686.076111 349.813232,686.687439 343.575897,686.976440 
	C342.681030,687.017944 341.765930,686.843933 340.874359,686.688416 
	C339.044708,686.369446 337.200714,685.609924 335.405365,685.721191 
	C331.137085,685.985657 326.902100,686.839172 322.634583,687.031555 
	C321.476440,687.083740 320.250397,685.629700 319.193390,684.463623 
	C319.208344,683.980225 319.085388,683.900085 318.962463,683.819946 
	C319.086365,683.919556 319.207031,684.023560 319.335236,684.117310 
	C319.465210,684.212463 319.602631,684.297363 319.736816,684.386719 
M745.804688,684.044495 
	C745.749878,683.788452 745.695129,683.532471 745.640320,683.276428 
	C745.397400,683.488403 745.154541,683.700378 744.307373,684.032288 
	C744.396912,684.376709 744.486511,684.721069 744.576111,685.065491 
	C744.881714,684.871826 745.187378,684.678162 745.804688,684.044495 
M468.245789,513.213318 
	C468.245789,513.213318 468.644836,513.501465 468.504395,514.246094 
	C468.040009,515.854004 467.575592,517.461914 466.861420,519.934570 
	C470.095062,518.621765 472.217133,517.760193 475.035950,516.615784 
	C473.263367,513.955750 472.183411,510.337982 470.169037,509.707947 
	C465.239716,508.166260 459.666229,506.802582 454.759155,507.670227 
	C450.872223,508.357483 447.539703,509.192841 443.824860,507.614868 
	C442.588898,507.089844 441.134003,507.080292 439.371460,506.761322 
	C439.750549,510.515442 440.058411,513.564270 440.368835,516.638306 
	C442.554169,516.786072 444.164062,516.894897 446.028046,517.020874 
	C446.299957,519.463867 446.548553,521.697449 446.819733,524.133789 
	C444.929077,524.424316 443.511475,524.642090 441.041199,525.021606 
	C444.634033,528.361267 447.496216,531.299988 450.647400,533.886597 
	C455.520538,537.886719 461.047180,541.157898 467.517181,539.862976 
	C471.696838,539.026489 475.532166,536.469666 479.596008,534.650574 
	C479.295532,531.308899 479.014954,528.188843 478.724731,524.961121 
	C474.229797,524.617981 469.878723,524.628723 465.692352,523.803650 
	C463.925598,523.455566 461.530823,521.547424 461.207855,519.980164 
	C460.896912,518.471191 462.645264,516.270020 463.957245,514.787476 
	C464.848022,513.780884 466.547211,513.489624 468.245789,513.213318 
M549.617798,540.126282 
	C553.400269,537.350098 557.182739,534.573914 560.965210,531.797729 
	C560.807373,531.215881 560.649597,530.634094 560.491760,530.052307 
	C551.757263,530.052307 542.985596,529.602234 534.310425,530.319397 
	C531.616150,530.542114 528.504150,533.460388 526.771973,535.966187 
	C523.113708,541.258179 525.746582,546.260559 532.169067,545.565613 
	C537.892029,544.946411 543.392700,542.272339 549.617798,540.126282 
M309.582245,524.528503 
	C309.840668,527.634216 310.099091,530.739990 310.412292,534.503784 
	C318.496460,531.132751 328.114044,532.756348 334.043152,523.400696 
	C332.684265,522.250305 331.206390,520.138794 329.253662,519.515747 
	C324.404968,517.968750 319.339569,517.101074 312.887177,515.622803 
	C312.173065,517.339233 310.847382,520.525696 309.582245,524.528503 
M419.580475,505.888306 
	C420.719269,504.860504 421.858093,503.832733 423.819550,502.062500 
	C423.691132,499.395111 423.504425,495.518188 423.275879,490.771759 
	C416.445312,496.507690 412.839142,506.678894 401.418396,501.103058 
	C405.583344,511.757019 410.672546,514.737000 421.857147,513.764893 
	C421.174835,511.366791 420.503693,509.007965 419.580475,505.888306 
M489.952026,376.709442 
	C490.914703,380.136261 491.877380,383.563080 492.883362,387.143982 
	C497.876343,385.209869 502.142120,383.557495 506.349243,381.927795 
	C503.361511,370.283600 497.194397,365.612915 487.360168,367.361725 
	C488.173889,370.226532 488.982605,373.073883 489.952026,376.709442 
M127.149460,410.753479 
	C125.806198,414.407410 124.462944,418.061340 122.787209,422.619659 
	C137.146820,418.757996 137.146820,418.757996 137.299881,410.406891 
	C147.089890,408.436279 147.089890,408.436279 147.036453,402.349457 
	C138.579697,402.121552 132.988098,404.365906 127.149460,410.753479 
M614.233032,478.964722 
	C615.436218,478.908905 616.639404,478.853058 617.842529,478.797211 
	C618.148865,478.392883 618.455200,477.988525 618.761536,477.584198 
	C608.332153,476.034424 604.022461,470.008209 605.955688,458.698151 
	C601.222473,462.655212 597.820435,465.071594 594.999390,468.040161 
	C593.611206,469.500854 592.240234,472.358093 592.786804,473.901550 
	C593.370483,475.549988 596.100342,477.100433 598.110291,477.451538 
	C603.127441,478.328003 608.267578,478.500122 614.233032,478.964722 
M404.732880,343.562225 
	C403.761108,343.399292 402.402618,342.745544 401.882233,343.155518 
	C399.137024,345.318481 396.210449,347.480164 394.285095,350.286163 
	C393.830719,350.948395 396.641083,354.562408 398.561859,356.001373 
	C403.214661,359.487000 410.960754,358.187958 417.196411,353.076447 
	C410.900726,352.745544 407.127350,349.569763 404.732880,343.562225 
M658.200073,279.631866 
	C661.306396,276.918640 661.860718,269.658325 659.431763,263.997406 
	C658.033264,260.738007 655.511047,259.482910 652.182068,260.234772 
	C648.579041,261.048584 648.745300,264.030518 649.346252,266.656586 
	C650.410706,271.308319 651.852722,275.873657 653.166199,280.580750 
	C654.875000,280.301147 656.169983,280.089264 658.200073,279.631866 
M574.827942,241.621231 
	C572.702759,240.928497 570.577637,240.235779 568.319214,239.499603 
	C568.162415,241.445480 568.047852,242.866913 567.929382,244.337616 
	C563.444519,245.403946 559.209839,246.410828 553.914062,247.669983 
	C557.627991,250.343964 560.480225,252.397537 562.979126,254.196701 
	C566.103210,252.649231 562.908142,246.648972 568.570618,247.693024 
	C568.959290,249.256912 569.300354,250.629120 569.600708,251.837708 
	C571.556580,251.837708 573.133667,251.837708 574.996704,251.837708 
	C574.996704,250.156036 574.996704,248.753418 574.996704,247.254959 
	C578.486633,246.802963 581.723083,246.383804 586.264648,245.795593 
	C581.772156,244.139206 578.684570,243.000793 574.827942,241.621231 
M736.916687,248.795258 
	C737.856201,250.199265 738.714539,252.743744 739.748779,252.817383 
	C745.365845,253.217270 751.026367,253.007278 756.630981,253.007278 
	C756.754150,247.347961 756.805359,247.163269 753.206787,246.165192 
	C747.629883,244.618454 741.760437,241.489731 736.916687,248.795258 
M688.334961,248.063263 
	C687.772339,246.173203 687.209778,244.283127 686.374878,241.478378 
	C684.438538,243.355225 681.743225,244.740295 681.474060,246.497086 
	C680.989075,249.662460 681.755005,253.140778 686.079956,253.924667 
	C686.820923,254.058960 687.786987,254.638367 688.083008,255.275253 
	C690.516479,260.509857 695.294739,259.305695 700.130920,260.100189 
	C698.143311,255.708099 696.994141,251.723297 691.561584,251.683090 
	C690.587585,251.675873 689.627441,249.788620 688.334961,248.063263 
M620.100891,252.167374 
	C623.077576,257.088043 627.870667,258.702850 633.409546,259.775970 
	C633.257996,257.386108 633.285889,255.396912 632.960266,253.467392 
	C632.705811,251.959839 632.397095,249.617889 631.448059,249.216095 
	C627.180847,247.409500 622.676392,246.163162 617.390686,244.430649 
	C618.428284,247.462952 619.113098,249.464233 620.100891,252.167374 
M618.655640,296.704987 
	C619.786011,298.000641 621.106873,299.177277 622.006409,300.617126 
	C623.804260,303.494751 629.953735,305.853027 633.725220,303.895355 
	C635.561218,302.942291 636.190247,299.664032 637.176025,297.797394 
	C630.808533,293.000488 625.050354,294.555237 618.655640,296.704987 
M683.455750,503.316559 
	C686.568909,506.259796 689.507080,509.421631 692.840210,512.090210 
	C696.884705,515.328308 699.033691,514.840698 702.710266,510.496704 
	C697.424316,507.106567 692.181091,503.693512 686.883667,500.366669 
	C684.030701,498.574982 682.685791,499.445618 683.455750,503.316559 
M748.920044,492.594086 
	C750.422791,492.020233 751.925598,491.446381 753.366089,490.896271 
	C751.104309,479.772278 749.979248,478.834778 741.765747,481.351257 
	C742.795898,484.635101 743.656860,487.997314 744.974304,491.169983 
	C745.328918,492.023956 747.070435,492.302063 748.920044,492.594086 
M637.357605,223.017868 
	C639.386902,220.691849 641.416260,218.365829 644.398193,214.947937 
	C634.413879,216.286987 626.165039,217.393295 617.916199,218.499588 
	C617.918213,219.163376 617.920166,219.827148 617.922180,220.490921 
	C619.866089,220.686401 621.813232,220.855026 623.753296,221.082886 
	C628.054321,221.587997 632.351929,222.122849 637.357605,223.017868 
M734.203979,208.709991 
	C733.043030,209.432938 731.882019,210.155869 730.360840,211.103104 
	C733.643250,213.758286 736.418884,216.003540 739.169067,218.228165 
	C745.671143,211.095886 745.772461,210.064713 740.563354,205.644135 
	C738.705444,206.522690 736.786865,207.429932 734.203979,208.709991 
M106.600754,424.245056 
	C107.124199,426.318939 107.084480,428.873138 108.328835,430.332184 
	C109.583153,431.803009 112.347404,433.169586 114.017586,432.770721 
	C115.702065,432.368469 117.910515,429.753571 117.930397,428.084747 
	C117.948593,426.557800 115.609398,424.282745 113.836533,423.639404 
	C111.690086,422.860443 109.047035,423.449951 106.600754,424.245056 
M646.811646,469.607605 
	C645.966431,468.851257 645.175964,467.531097 644.265930,467.442780 
	C641.367798,467.161530 638.425171,467.338562 634.949341,467.338562 
	C635.289368,470.140564 635.568237,472.439056 635.890076,475.090790 
	C638.358765,474.619873 640.261230,474.271973 642.156616,473.889099 
	C643.121948,473.694092 644.269836,473.689514 644.982056,473.140686 
	C645.813660,472.499786 646.259949,471.358948 646.811646,469.607605 
M378.674683,399.948547 
	C375.371155,400.258881 376.278748,401.839905 377.699158,403.408295 
	C380.404144,406.394928 385.850586,405.862915 389.897400,402.292297 
	C387.754028,395.784027 383.291382,399.053040 378.674683,399.948547 
M295.948761,516.916504 
	C294.729401,519.304565 293.510040,521.692627 292.103302,524.447754 
	C295.645782,524.447754 298.036469,524.447754 301.002899,524.447754 
	C299.642731,521.485779 303.049652,516.736816 295.948761,516.916504 
M627.525696,681.207825 
	C623.823608,681.386108 620.086243,681.959106 616.429443,681.631653 
	C612.766113,681.303589 609.183289,680.076294 605.033875,679.120728 
	C605.488892,680.508301 605.542542,681.289612 605.798523,681.362793 
	C612.662415,683.324341 619.631958,684.616821 626.798035,683.827881 
	C627.380798,683.763672 627.795776,682.175598 627.525696,681.207825 
M793.759277,241.838791 
	C795.533936,241.838791 797.308533,241.838791 799.370728,241.838791 
	C799.159424,239.846375 799.007751,238.416397 798.866821,237.087433 
	C795.866699,237.087433 793.166626,237.087433 788.860046,237.087433 
	C790.797424,239.339035 791.872192,240.588089 793.759277,241.838791 
M376.236176,373.466583 
	C378.687836,372.859650 381.139496,372.252747 384.654907,371.382477 
	C382.167328,369.628387 380.394745,367.396332 378.854004,367.546356 
	C377.022552,367.724609 375.368225,369.925598 373.757202,371.382812 
	C373.696167,371.438019 374.889862,372.880341 376.236176,373.466583 
M521.030029,254.652664 
	C522.616089,254.652664 524.202148,254.652664 525.761292,254.652664 
	C526.151245,246.891495 525.643005,246.375732 518.638916,247.695633 
	C519.225830,249.873047 519.799927,252.002686 521.030029,254.652664 
M185.605270,323.850128 
	C189.102707,322.373657 192.600143,320.897156 196.097565,319.420685 
	C193.844040,317.802429 190.967514,316.314789 189.711060,317.179962 
	C187.566879,318.656372 186.439301,321.609222 185.605270,323.850128 
M418.204102,247.010086 
	C420.321747,251.508987 421.881470,246.068253 424.152405,247.328156 
	C423.883606,244.460617 423.677277,242.259842 423.465027,239.995667 
	C419.481628,240.714081 416.799255,241.881958 418.204102,247.010086 
M727.014038,253.446991 
	C727.939453,252.417694 728.864807,251.388412 730.055908,250.063568 
	C721.218018,249.815506 720.190369,250.922241 721.635986,259.796631 
	C723.551208,257.504089 725.027222,255.737305 727.014038,253.446991 
M320.843842,323.253052 
	C322.913666,322.383728 324.983459,321.514374 327.053253,320.645020 
	C326.890015,320.186005 326.726776,319.726959 326.563538,319.267914 
	C323.893982,318.635223 321.224426,318.002502 317.838898,317.200104 
	C318.972473,319.492279 319.757477,321.079559 320.843842,323.253052 
M454.285706,252.268661 
	C455.644653,250.789841 457.003601,249.311020 458.362518,247.832199 
	C458.158691,247.510040 457.954865,247.187881 457.751007,246.865738 
	C453.967621,247.636047 450.184204,248.406372 444.935211,249.475098 
	C448.795868,250.676529 451.140594,251.406204 454.285706,252.268661 
M769.481750,262.068512 
	C769.249084,256.575195 768.958008,256.377563 763.252686,258.118073 
	C763.555115,259.611511 763.863037,261.131836 764.205017,262.820190 
	C765.990295,262.734009 767.443298,262.663879 769.481750,262.068512 
M597.250427,303.048615 
	C595.508362,302.333313 593.766296,301.618011 591.036926,300.497375 
	C591.650940,303.633850 591.951721,305.170380 592.333862,307.122223 
	C594.422852,306.101654 598.179138,308.818878 597.250427,303.048615 
M533.716980,280.900269 
	C538.471313,281.372192 537.161194,278.459381 536.677551,275.633545 
	C534.763733,275.633545 533.024963,275.633545 530.107788,275.633545 
	C531.261414,277.817780 532.068604,279.346008 533.716980,280.900269 
M670.809631,426.041626 
	C672.486450,425.914795 674.163269,425.787933 677.093140,425.566284 
	C674.007019,422.778107 671.940735,420.911285 668.859985,418.127930 
	C669.425049,421.620605 669.755615,423.664215 670.809631,426.041626 
M753.959412,522.008911 
	C752.355713,522.008911 750.751953,522.008911 748.835205,522.008911 
	C748.983887,523.956970 749.091736,525.370239 749.285156,527.904358 
	C751.954834,526.579224 754.016235,525.555969 756.077637,524.532776 
	C755.644104,523.695435 755.210571,522.858154 753.959412,522.008911 
M880.179932,475.181091 
	C879.499329,475.208954 878.818726,475.236816 878.138123,475.264648 
	C878.319092,477.052795 878.500122,478.840942 878.722839,481.041138 
	C880.877319,480.862732 882.719055,480.710205 884.560730,480.557709 
	C884.832458,480.097351 885.104126,479.636963 885.375793,479.176605 
	C883.818237,478.013000 882.260742,476.849426 880.179932,475.181091 
M770.919556,264.952087 
	C768.873840,266.178375 766.828125,267.404663 764.782410,268.630951 
	C764.870667,268.951660 764.958984,269.272339 765.047302,269.593048 
	C767.668823,269.822296 770.290405,270.051575 773.670532,270.347168 
	C772.791931,267.884888 772.254028,266.377594 770.919556,264.952087 
M165.027771,473.041534 
	C162.603470,471.899323 160.179153,470.757111 156.819534,469.174225 
	C157.300339,471.824524 157.544998,473.173157 157.823715,474.709534 
	C160.567108,474.331390 162.854294,474.016113 165.027771,473.041534 
M206.264236,347.654388 
	C208.379211,346.352325 210.494186,345.050293 213.513397,343.191559 
	C209.907547,343.191559 207.633347,343.191559 204.975052,343.191559 
	C205.229828,344.738617 205.437302,345.998474 206.264236,347.654388 
z"/>
<path fill="#F5F5F3" opacity="1.000000" stroke="none" 
	d="
M381.080566,545.974304 
	C380.917999,544.603088 380.755432,543.231812 380.975403,541.445190 
	C382.232178,540.851929 383.106415,540.674011 383.980652,540.496155 
	C383.234741,539.332275 382.488800,538.168396 381.742859,537.004517 
	C382.239227,535.176270 382.152374,532.457947 383.337769,531.681274 
	C387.430847,528.999512 386.510437,525.740234 384.961334,521.658875 
	C390.468506,520.934448 395.646698,520.253296 401.562653,519.475098 
	C401.562653,522.587524 401.562653,525.182434 401.305237,528.386780 
	C399.256561,528.581848 397.465302,528.167480 394.317902,527.439453 
	C396.560089,530.775085 398.233337,533.264282 399.906586,535.753540 
	C399.512390,536.464783 399.118195,537.176025 398.025635,537.881836 
	C392.922241,541.236450 388.517242,544.596436 384.112244,547.956421 
	C383.931793,547.968445 383.751312,547.980530 383.268005,547.685974 
	C382.336975,546.911011 381.708771,546.442627 381.080566,545.974304 
z"/>
<path fill="#2B2A21" opacity="1.000000" stroke="none" 
	d="
M390.389893,548.024597 
	C395.343384,548.024597 400.296875,548.024597 405.250397,548.024597 
	C405.371216,548.256287 405.492065,548.487976 405.612885,548.719727 
	C399.373993,551.949524 393.135071,555.179382 385.468414,559.148376 
	C387.426331,555.115967 388.742859,552.404602 390.391235,549.130005 
	C390.660492,548.363892 390.597870,548.161011 390.500305,547.977783 
	C390.465393,547.997437 390.389893,548.024597 390.389893,548.024597 
z"/>
<path fill="#E5E5DF" opacity="1.000000" stroke="none" 
	d="
M77.065247,374.169556 
	C79.206047,374.535034 81.241776,375.597198 83.400597,376.000610 
	C85.459732,376.385406 87.647186,376.083527 90.009529,376.083527 
	C90.290558,377.696503 90.535301,379.101257 90.837929,380.838257 
	C86.443947,381.030487 82.050621,382.678253 79.593475,377.397614 
	C79.490463,377.176300 78.281593,377.469513 77.268318,377.697449 
	C76.970474,376.774048 76.992218,375.676178 77.065247,374.169556 
z"/>
<path fill="#32312B" opacity="1.000000" stroke="none" 
	d="
M390.731506,547.874390 
	C390.389893,548.024597 390.465393,547.997437 390.116028,548.006104 
	C389.513611,548.059509 389.260498,548.104370 389.007385,548.149292 
	C387.648193,548.094666 386.289032,548.040039 384.521057,547.970947 
	C388.517242,544.596436 392.922241,541.236450 397.691711,537.930664 
	C395.728485,541.231323 393.400818,544.477783 390.731506,547.874390 
z"/>
<path fill="#595750" opacity="1.000000" stroke="none" 
	d="
M400.079224,535.459900 
	C398.233337,533.264282 396.560089,530.775085 394.317902,527.439453 
	C397.465302,528.167480 399.256561,528.581848 401.360107,528.812439 
	C402.050476,529.133545 402.428619,529.638428 402.925995,530.436462 
	C402.114105,532.208496 401.182983,533.687378 400.079224,535.459900 
z"/>
<path fill="#C5C5C0" opacity="1.000000" stroke="none" 
	d="
M380.990356,546.322876 
	C381.708771,546.442627 382.336975,546.911011 382.996887,547.695190 
	C382.619354,548.034424 382.210144,548.057739 381.493805,548.071533 
	C381.091156,547.598511 380.995667,547.134949 380.990356,546.322876 
z"/>
<path fill="#F5F5F3" opacity="1.000000" stroke="none" 
	d="
M389.163696,548.358643 
	C389.260498,548.104370 389.513611,548.059509 390.150970,547.986389 
	C390.597870,548.161011 390.660492,548.363892 390.489166,548.782898 
	C389.943481,548.855347 389.631714,548.711670 389.163696,548.358643 
z"/>
<path fill="#F5F5F3" opacity="1.000000" stroke="none" 
	d="
M467.884949,512.878540 
	C466.547211,513.489624 464.848022,513.780884 463.957245,514.787476 
	C462.645264,516.270020 460.896912,518.471191 461.207855,519.980164 
	C461.530823,521.547424 463.925598,523.455566 465.692352,523.803650 
	C469.878723,524.628723 474.229797,524.617981 478.724731,524.961121 
	C479.014954,528.188843 479.295532,531.308899 479.596008,534.650574 
	C475.532166,536.469666 471.696838,539.026489 467.517181,539.862976 
	C461.047180,541.157898 455.520538,537.886719 450.647400,533.886597 
	C447.496216,531.299988 444.634033,528.361267 441.041199,525.021606 
	C443.511475,524.642090 444.929077,524.424316 446.819733,524.133789 
	C446.548553,521.697449 446.299957,519.463867 446.028046,517.020874 
	C444.164062,516.894897 442.554169,516.786072 440.368835,516.638306 
	C440.058411,513.564270 439.750549,510.515442 439.371460,506.761322 
	C441.134003,507.080292 442.588898,507.089844 443.824860,507.614868 
	C447.539703,509.192841 450.872223,508.357483 454.759155,507.670227 
	C459.666229,506.802582 465.239716,508.166260 470.169037,509.707947 
	C472.183411,510.337982 473.263367,513.955750 475.035950,516.615784 
	C472.217133,517.760193 470.095062,518.621765 466.861420,519.934570 
	C467.575592,517.461914 468.040009,515.854004 468.675232,513.656738 
	C468.732452,512.794373 468.618835,512.521362 468.505249,512.248352 
	C468.298462,512.458435 468.091705,512.668518 467.884949,512.878540 
z"/>
<path fill="#F5F5F3" opacity="1.000000" stroke="none" 
	d="
M549.304626,540.315674 
	C543.392700,542.272339 537.892029,544.946411 532.169067,545.565613 
	C525.746582,546.260559 523.113708,541.258179 526.771973,535.966187 
	C528.504150,533.460388 531.616150,530.542114 534.310425,530.319397 
	C542.985596,529.602234 551.757263,530.052307 560.491760,530.052307 
	C560.649597,530.634094 560.807373,531.215881 560.965210,531.797729 
	C557.182739,534.573914 553.400269,537.350098 549.304626,540.315674 
z"/>
<path fill="#F3F3F1" opacity="1.000000" stroke="none" 
	d="
M309.551971,524.120361 
	C310.847382,520.525696 312.173065,517.339233 312.887177,515.622803 
	C319.339569,517.101074 324.404968,517.968750 329.253662,519.515747 
	C331.206390,520.138794 332.684265,522.250305 334.043152,523.400696 
	C328.114044,532.756348 318.496460,531.132751 310.412292,534.503784 
	C310.099091,530.739990 309.840668,527.634216 309.551971,524.120361 
z"/>
<path fill="#EFEFEC" opacity="1.000000" stroke="none" 
	d="
M419.706512,506.268707 
	C420.503693,509.007965 421.174835,511.366791 421.857147,513.764893 
	C410.672546,514.737000 405.583344,511.757019 401.418396,501.103058 
	C412.839142,506.678894 416.445312,496.507690 423.275879,490.771759 
	C423.504425,495.518188 423.691132,499.395111 423.819550,502.062500 
	C421.858093,503.832733 420.719269,504.860504 419.706512,506.268707 
z"/>
<path fill="#F4F3F1" opacity="1.000000" stroke="none" 
	d="
M489.871704,376.315308 
	C488.982605,373.073883 488.173889,370.226532 487.360168,367.361725 
	C497.194397,365.612915 503.361511,370.283600 506.349243,381.927795 
	C502.142120,383.557495 497.876343,385.209869 492.883362,387.143982 
	C491.877380,383.563080 490.914703,380.136261 489.871704,376.315308 
z"/>
<path fill="#F0F0ED" opacity="1.000000" stroke="none" 
	d="
M127.364532,410.456268 
	C132.988098,404.365906 138.579697,402.121552 147.036453,402.349457 
	C147.089890,408.436279 147.089890,408.436279 137.299881,410.406891 
	C137.146820,418.757996 137.146820,418.757996 122.787209,422.619659 
	C124.462944,418.061340 125.806198,414.407410 127.364532,410.456268 
z"/>
<path fill="#F0F0ED" opacity="1.000000" stroke="none" 
	d="
M613.795715,478.959839 
	C608.267578,478.500122 603.127441,478.328003 598.110291,477.451538 
	C596.100342,477.100433 593.370483,475.549988 592.786804,473.901550 
	C592.240234,472.358093 593.611206,469.500854 594.999390,468.040161 
	C597.820435,465.071594 601.222473,462.655212 605.955688,458.698151 
	C604.022461,470.008209 608.332153,476.034424 618.761536,477.584198 
	C618.455200,477.988525 618.148865,478.392883 617.842529,478.797211 
	C616.639404,478.853058 615.436218,478.908905 613.795715,478.959839 
z"/>
<path fill="#F1F1EE" opacity="1.000000" stroke="none" 
	d="
M405.072144,343.750183 
	C407.127350,349.569763 410.900726,352.745544 417.196411,353.076447 
	C410.960754,358.187958 403.214661,359.487000 398.561859,356.001373 
	C396.641083,354.562408 393.830719,350.948395 394.285095,350.286163 
	C396.210449,347.480164 399.137024,345.318481 401.882233,343.155518 
	C402.402618,342.745544 403.761108,343.399292 405.072144,343.750183 
z"/>
<path fill="#F1F1EE" opacity="1.000000" stroke="none" 
	d="
M657.832520,279.754639 
	C656.169983,280.089264 654.875000,280.301147 653.166199,280.580750 
	C651.852722,275.873657 650.410706,271.308319 649.346252,266.656586 
	C648.745300,264.030518 648.579041,261.048584 652.182068,260.234772 
	C655.511047,259.482910 658.033264,260.738007 659.431763,263.997406 
	C661.860718,269.658325 661.306396,276.918640 657.832520,279.754639 
z"/>
<path fill="#EAEAE5" opacity="1.000000" stroke="none" 
	d="
M575.212463,241.741821 
	C578.684570,243.000793 581.772156,244.139206 586.264648,245.795593 
	C581.723083,246.383804 578.486633,246.802963 574.996704,247.254959 
	C574.996704,248.753418 574.996704,250.156036 574.996704,251.837708 
	C573.133667,251.837708 571.556580,251.837708 569.600708,251.837708 
	C569.300354,250.629120 568.959290,249.256912 568.570618,247.693024 
	C562.908142,246.648972 566.103210,252.649231 562.979126,254.196701 
	C560.480225,252.397537 557.627991,250.343964 553.914062,247.669983 
	C559.209839,246.410828 563.444519,245.403946 567.929382,244.337616 
	C568.047852,242.866913 568.162415,241.445480 568.319214,239.499603 
	C570.577637,240.235779 572.702759,240.928497 575.212463,241.741821 
z"/>
<path fill="#F1F1EE" opacity="1.000000" stroke="none" 
	d="
M736.981323,248.389984 
	C741.760437,241.489731 747.629883,244.618454 753.206787,246.165192 
	C756.805359,247.163269 756.754150,247.347961 756.630981,253.007278 
	C751.026367,253.007278 745.365845,253.217270 739.748779,252.817383 
	C738.714539,252.743744 737.856201,250.199265 736.981323,248.389984 
z"/>
<path fill="#EFEFEC" opacity="1.000000" stroke="none" 
	d="
M688.497925,248.416336 
	C689.627441,249.788620 690.587585,251.675873 691.561584,251.683090 
	C696.994141,251.723297 698.143311,255.708099 700.130920,260.100189 
	C695.294739,259.305695 690.516479,260.509857 688.083008,255.275253 
	C687.786987,254.638367 686.820923,254.058960 686.079956,253.924667 
	C681.755005,253.140778 680.989075,249.662460 681.474060,246.497086 
	C681.743225,244.740295 684.438538,243.355225 686.374878,241.478378 
	C687.209778,244.283127 687.772339,246.173203 688.497925,248.416336 
z"/>
<path fill="#F1F1EE" opacity="1.000000" stroke="none" 
	d="
M619.949402,251.816437 
	C619.113098,249.464233 618.428284,247.462952 617.390686,244.430649 
	C622.676392,246.163162 627.180847,247.409500 631.448059,249.216095 
	C632.397095,249.617889 632.705811,251.959839 632.960266,253.467392 
	C633.285889,255.396912 633.257996,257.386108 633.409546,259.775970 
	C627.870667,258.702850 623.077576,257.088043 619.949402,251.816437 
z"/>
<path fill="#F0F0ED" opacity="1.000000" stroke="none" 
	d="
M618.969910,296.513611 
	C625.050354,294.555237 630.808533,293.000488 637.176025,297.797394 
	C636.190247,299.664032 635.561218,302.942291 633.725220,303.895355 
	C629.953735,305.853027 623.804260,303.494751 622.006409,300.617126 
	C621.106873,299.177277 619.786011,298.000641 618.969910,296.513611 
z"/>
<path fill="#EFEFEC" opacity="1.000000" stroke="none" 
	d="
M683.237061,503.067688 
	C682.685791,499.445618 684.030701,498.574982 686.883667,500.366669 
	C692.181091,503.693512 697.424316,507.106567 702.710266,510.496704 
	C699.033691,514.840698 696.884705,515.328308 692.840210,512.090210 
	C689.507080,509.421631 686.568909,506.259796 683.237061,503.067688 
z"/>
<path fill="#EAEAE8" opacity="1.000000" stroke="none" 
	d="
M748.547729,492.719299 
	C747.070435,492.302063 745.328918,492.023956 744.974304,491.169983 
	C743.656860,487.997314 742.795898,484.635101 741.765747,481.351257 
	C749.979248,478.834778 751.104309,479.772278 753.366089,490.896271 
	C751.925598,491.446381 750.422791,492.020233 748.547729,492.719299 
z"/>
<path fill="#E9E8E3" opacity="1.000000" stroke="none" 
	d="
M637.004272,222.831726 
	C632.351929,222.122849 628.054321,221.587997 623.753296,221.082886 
	C621.813232,220.855026 619.866089,220.686401 617.922180,220.490921 
	C617.920166,219.827148 617.918213,219.163376 617.916199,218.499588 
	C626.165039,217.393295 634.413879,216.286987 644.398193,214.947937 
	C641.416260,218.365829 639.386902,220.691849 637.004272,222.831726 
z"/>
<path fill="#F1F1EE" opacity="1.000000" stroke="none" 
	d="
M734.536133,208.523590 
	C736.786865,207.429932 738.705444,206.522690 740.563354,205.644135 
	C745.772461,210.064713 745.671143,211.095886 739.169067,218.228165 
	C736.418884,216.003540 733.643250,213.758286 730.360840,211.103104 
	C731.882019,210.155869 733.043030,209.432938 734.536133,208.523590 
z"/>
<path fill="#EFEFEC" opacity="1.000000" stroke="none" 
	d="
M106.609818,423.846191 
	C109.047035,423.449951 111.690086,422.860443 113.836533,423.639404 
	C115.609398,424.282745 117.948593,426.557800 117.930397,428.084747 
	C117.910515,429.753571 115.702065,432.368469 114.017586,432.770721 
	C112.347404,433.169586 109.583153,431.803009 108.328835,430.332184 
	C107.084480,428.873138 107.124199,426.318939 106.609818,423.846191 
z"/>
<path fill="#E0DFDA" opacity="1.000000" stroke="none" 
	d="
M646.842529,470.021301 
	C646.259949,471.358948 645.813660,472.499786 644.982056,473.140686 
	C644.269836,473.689514 643.121948,473.694092 642.156616,473.889099 
	C640.261230,474.271973 638.358765,474.619873 635.890076,475.090790 
	C635.568237,472.439056 635.289368,470.140564 634.949341,467.338562 
	C638.425171,467.338562 641.367798,467.161530 644.265930,467.442780 
	C645.175964,467.531097 645.966431,468.851257 646.842529,470.021301 
z"/>
<path fill="#EFEFEC" opacity="1.000000" stroke="none" 
	d="
M379.050781,399.874542 
	C383.291382,399.053040 387.754028,395.784027 389.898315,402.288452 
	C385.850586,405.862915 380.404144,406.394928 377.699158,403.408295 
	C376.278748,401.839905 375.371155,400.258881 379.050781,399.874542 
z"/>
<path fill="#E0DFDA" opacity="1.000000" stroke="none" 
	d="
M296.356934,516.889648 
	C303.049652,516.736816 299.642731,521.485779 301.002899,524.447754 
	C298.036469,524.447754 295.645782,524.447754 292.103302,524.447754 
	C293.510040,521.692627 294.729401,519.304565 296.356934,516.889648 
z"/>
<path fill="#7C7970" opacity="1.000000" stroke="none" 
	d="
M627.907227,681.251709 
	C627.795776,682.175598 627.380798,683.763672 626.798035,683.827881 
	C619.631958,684.616821 612.662415,683.324341 605.798523,681.362793 
	C605.542542,681.289612 605.488892,680.508301 605.033875,679.120728 
	C609.183289,680.076294 612.766113,681.303589 616.429443,681.631653 
	C620.086243,681.959106 623.823608,681.386108 627.907227,681.251709 
z"/>
<path fill="#EAEAE5" opacity="1.000000" stroke="none" 
	d="
M793.353149,241.837952 
	C791.872192,240.588089 790.797424,239.339035 788.860046,237.087433 
	C793.166626,237.087433 795.866699,237.087433 798.866821,237.087433 
	C799.007751,238.416397 799.159424,239.846375 799.370728,241.838791 
	C797.308533,241.838791 795.533936,241.838791 793.353149,241.837952 
z"/>
<path fill="#E5E5DF" opacity="1.000000" stroke="none" 
	d="
M375.867493,373.571411 
	C374.889862,372.880341 373.696167,371.438019 373.757202,371.382812 
	C375.368225,369.925598 377.022552,367.724609 378.854004,367.546356 
	C380.394745,367.396332 382.167328,369.628387 384.654907,371.382477 
	C381.139496,372.252747 378.687836,372.859650 375.867493,373.571411 
z"/>
<path fill="#E5E5DF" opacity="1.000000" stroke="none" 
	d="
M520.702026,254.392487 
	C519.799927,252.002686 519.225830,249.873047 518.638916,247.695633 
	C525.643005,246.375732 526.151245,246.891495 525.761292,254.652664 
	C524.202148,254.652664 522.616089,254.652664 520.702026,254.392487 
z"/>
<path fill="#E5E5DF" opacity="1.000000" stroke="none" 
	d="
M185.244995,323.895996 
	C186.439301,321.609222 187.566879,318.656372 189.711060,317.179962 
	C190.967514,316.314789 193.844040,317.802429 196.097565,319.420685 
	C192.600143,320.897156 189.102707,322.373657 185.244995,323.895996 
z"/>
<path fill="#E0DFDA" opacity="1.000000" stroke="none" 
	d="
M418.146149,246.603699 
	C416.799255,241.881958 419.481628,240.714081 423.465027,239.995667 
	C423.677277,242.259842 423.883606,244.460617 424.152405,247.328156 
	C421.881470,246.068253 420.321747,251.508987 418.146149,246.603699 
z"/>
<path fill="#E5E5DF" opacity="1.000000" stroke="none" 
	d="
M726.758667,253.708740 
	C725.027222,255.737305 723.551208,257.504089 721.635986,259.796631 
	C720.190369,250.922241 721.218018,249.815506 730.055908,250.063568 
	C728.864807,251.388412 727.939453,252.417694 726.758667,253.708740 
z"/>
<path fill="#E0DFDA" opacity="1.000000" stroke="none" 
	d="
M320.693146,322.959961 
	C319.757477,321.079559 318.972473,319.492279 317.838898,317.200104 
	C321.224426,318.002502 323.893982,318.635223 326.563538,319.267914 
	C326.726776,319.726959 326.890015,320.186005 327.053253,320.645020 
	C324.983459,321.514374 322.913666,322.383728 320.693146,322.959961 
z"/>
<path fill="#E0DFDA" opacity="1.000000" stroke="none" 
	d="
M453.885498,252.202271 
	C451.140594,251.406204 448.795868,250.676529 444.935211,249.475098 
	C450.184204,248.406372 453.967621,247.636047 457.751007,246.865738 
	C457.954865,247.187881 458.158691,247.510040 458.362518,247.832199 
	C457.003601,249.311020 455.644653,250.789841 453.885498,252.202271 
z"/>
<path fill="#D4D3CD" opacity="1.000000" stroke="none" 
	d="
M769.188965,262.331116 
	C767.443298,262.663879 765.990295,262.734009 764.205017,262.820190 
	C763.863037,261.131836 763.555115,259.611511 763.252686,258.118073 
	C768.958008,256.377563 769.249084,256.575195 769.188965,262.331116 
z"/>
<path fill="#E0DFDA" opacity="1.000000" stroke="none" 
	d="
M597.297119,303.432739 
	C598.179138,308.818878 594.422852,306.101654 592.333862,307.122223 
	C591.951721,305.170380 591.650940,303.633850 591.036926,300.497375 
	C593.766296,301.618011 595.508362,302.333313 597.297119,303.432739 
z"/>
<path fill="#D4D3CD" opacity="1.000000" stroke="none" 
	d="
M533.296387,280.887268 
	C532.068604,279.346008 531.261414,277.817780 530.107788,275.633545 
	C533.024963,275.633545 534.763733,275.633545 536.677551,275.633545 
	C537.161194,278.459381 538.471313,281.372192 533.296387,280.887268 
z"/>
<path fill="#D4D3CD" opacity="1.000000" stroke="none" 
	d="
M670.447937,425.874725 
	C669.755615,423.664215 669.425049,421.620605 668.859985,418.127930 
	C671.940735,420.911285 674.007019,422.778107 677.093140,425.566284 
	C674.163269,425.787933 672.486450,425.914795 670.447937,425.874725 
z"/>
<path fill="#EAEAE5" opacity="1.000000" stroke="none" 
	d="
M754.368225,522.014893 
	C755.210571,522.858154 755.644104,523.695435 756.077637,524.532776 
	C754.016235,525.555969 751.954834,526.579224 749.285156,527.904358 
	C749.091736,525.370239 748.983887,523.956970 748.835205,522.008911 
	C750.751953,522.008911 752.355713,522.008911 754.368225,522.014893 
z"/>
<path fill="#D4D3CD" opacity="1.000000" stroke="none" 
	d="
M880.441528,475.433472 
	C882.260742,476.849426 883.818237,478.013000 885.375793,479.176605 
	C885.104126,479.636963 884.832458,480.097351 884.560730,480.557709 
	C882.719055,480.710205 880.877319,480.862732 878.722839,481.041138 
	C878.500122,478.840942 878.319092,477.052795 878.138123,475.264648 
	C878.818726,475.236816 879.499329,475.208954 880.441528,475.433472 
z"/>
<path fill="#E0DFDA" opacity="1.000000" stroke="none" 
	d="
M771.317871,264.911194 
	C772.254028,266.377594 772.791931,267.884888 773.670532,270.347168 
	C770.290405,270.051575 767.668823,269.822296 765.047302,269.593048 
	C764.958984,269.272339 764.870667,268.951660 764.782410,268.630951 
	C766.828125,267.404663 768.873840,266.178375 771.317871,264.911194 
z"/>
<path fill="#D4D3CD" opacity="1.000000" stroke="none" 
	d="
M165.084625,473.371185 
	C162.854294,474.016113 160.567108,474.331390 157.823715,474.709534 
	C157.544998,473.173157 157.300339,471.824524 156.819534,469.174225 
	C160.179153,470.757111 162.603470,471.899323 165.084625,473.371185 
z"/>
<path fill="#D4D3CD" opacity="1.000000" stroke="none" 
	d="
M205.954498,347.456360 
	C205.437302,345.998474 205.229828,344.738617 204.975052,343.191559 
	C207.633347,343.191559 209.907547,343.191559 213.513397,343.191559 
	C210.494186,345.050293 208.379211,346.352325 205.954498,347.456360 
z"/>
<path fill="#C5C5C0" opacity="1.000000" stroke="none" 
	d="
M381.402893,537.124390 
	C382.488800,538.168396 383.234741,539.332275 383.980652,540.496155 
	C383.106415,540.674011 382.232178,540.851929 381.005981,541.031616 
	C380.790344,539.770325 380.926636,538.507263 381.402893,537.124390 
z"/>
<path fill="#FCFCFB" opacity="1.000000" stroke="none" 
	d="
M277.755371,531.288391 
	C277.535034,531.117310 277.265503,530.931030 276.995972,530.744812 
	C277.069550,530.691345 277.143127,530.637817 277.216736,530.584290 
	C277.265472,530.712952 277.314240,530.841675 277.571716,531.146729 
	C277.780396,531.323181 277.706207,531.273193 277.755371,531.288391 
z"/>
<path fill="#FCFCFB" opacity="1.000000" stroke="none" 
	d="
M614.001953,526.994995 
	C614.184570,526.829895 614.343628,526.635315 614.502808,526.440735 
	C614.434998,526.691101 614.367188,526.941406 614.120361,527.045898 
	C613.941406,526.900085 613.978516,526.965576 614.001953,526.994995 
z"/>
<path fill="#FCFCFB" opacity="1.000000" stroke="none" 
	d="
M319.690857,684.367920 
	C319.602631,684.297363 319.465210,684.212463 319.335236,684.117310 
	C319.207031,684.023560 319.086365,683.919556 318.962463,683.819946 
	C319.085388,683.900085 319.208344,683.980225 319.534668,684.216553 
	C319.738037,684.372681 319.644867,684.349121 319.690857,684.367920 
z"/>
<path fill="#FCFCFB" opacity="1.000000" stroke="none" 
	d="
M744.911682,683.912415 
	C745.154541,683.700378 745.397400,683.488403 745.640320,683.276428 
	C745.695129,683.532471 745.749878,683.788452 745.504883,684.120117 
	C745.205017,684.195740 744.911682,683.912415 744.911682,683.912415 
z"/>
<path fill="#FCFCFB" opacity="1.000000" stroke="none" 
	d="
M745.348999,684.340088 
	C745.187378,684.678162 744.881714,684.871826 744.576111,685.065491 
	C744.486511,684.721069 744.396912,684.376709 744.609497,683.972351 
	C744.911682,683.912415 745.205017,684.195740 745.348999,684.340088 
z"/>
<path fill="#222014" opacity="1.000000" stroke="none" 
	d="
M468.065369,513.045898 
	C468.091705,512.668518 468.298462,512.458435 468.505249,512.248352 
	C468.618835,512.521362 468.732452,512.794373 468.745453,513.284424 
	C468.644836,513.501465 468.245789,513.213318 468.065369,513.045898 
z"/>
</svg>