<svg version="1.1" id="Layer_1" xmlns="http://www.w3.org/2000/svg" xmlns:xlink="http://www.w3.org/1999/xlink" x="0px" y="0px"
	 width="100%" viewBox="0 0 418 386" enable-background="new 0 0 418 386" xml:space="preserve">
<path fill="#221337" opacity="1.000000" stroke="none" 
	d="
M240.000000,387.000000 
	C160.000000,387.000000 80.500000,387.000000 1.000000,387.000000 
	C1.000000,258.333344 1.000000,129.666672 1.000000,1.000000 
	C140.333328,1.000000 279.666656,1.000000 419.000000,1.000000 
	C419.000000,129.666672 419.000000,258.333344 419.000000,387.000000 
	C359.500000,387.000000 300.000000,387.000000 240.000000,387.000000 
M122.674408,374.998108 
	C127.986702,375.357452 133.298508,376.020203 138.611359,376.028839 
	C187.605469,376.108459 236.599808,376.049103 285.593994,376.093658 
	C297.028625,376.104065 308.106201,374.241791 318.957397,370.681580 
	C362.813293,356.292938 392.861816,315.224701 392.992188,268.969543 
	C393.130768,219.809036 392.996185,170.647797 393.040314,121.486946 
	C393.054016,106.250687 390.141296,91.522385 383.548889,77.919006 
	C363.725281,37.013149 330.744537,15.075107 285.322510,14.209641 
	C236.512604,13.279624 187.669434,13.779138 138.845215,14.186490 
	C129.143448,14.267435 119.155479,15.671560 109.822281,18.312876 
	C62.200710,31.789894 31.079168,73.327271 30.991119,122.816391 
	C30.903358,172.143738 30.881699,221.471893 31.110229,270.798370 
	C31.143097,277.892517 31.949575,285.186646 33.742664,292.036194 
	C45.762161,337.950470 75.404335,365.399200 122.674408,374.998108 
z"/>
<path fill="#E9AE60" opacity="1.000000" stroke="none" 
	d="
M122.237717,374.958801 
	C75.404335,365.399200 45.762161,337.950470 33.742664,292.036194 
	C31.949575,285.186646 31.143097,277.892517 31.110229,270.798370 
	C30.881699,221.471893 30.903358,172.143738 30.991119,122.816391 
	C31.079168,73.327271 62.200710,31.789894 109.822281,18.312876 
	C119.155479,15.671560 129.143448,14.267435 138.845215,14.186490 
	C187.669434,13.779138 236.512604,13.279624 285.322510,14.209641 
	C330.744537,15.075107 363.725281,37.013149 383.548889,77.919006 
	C390.141296,91.522385 393.054016,106.250687 393.040314,121.486946 
	C392.996185,170.647797 393.130768,219.809036 392.992188,268.969543 
	C392.861816,315.224701 362.813293,356.292938 318.957397,370.681580 
	C308.106201,374.241791 297.028625,376.104065 285.593994,376.093658 
	C236.599808,376.049103 187.605469,376.108459 138.611359,376.028839 
	C133.298508,376.020203 127.986702,375.357452 122.237717,374.958801 
M309.520721,147.038239 
	C308.207855,144.723114 306.927094,142.389099 305.577393,140.095642 
	C279.474670,95.740692 227.428329,76.379051 178.640594,91.736710 
	C126.270088,108.222183 94.630562,162.567245 105.376266,216.515945 
	C115.483704,267.260254 160.843201,304.766479 212.588348,303.605103 
	C257.477966,302.597595 290.758148,281.485901 310.263092,240.845047 
	C325.028168,210.080338 323.955933,178.693558 309.520721,147.038239 
z"/>
<path fill="#C53675" opacity="1.000000" stroke="none" 
	d="
M309.691376,147.371582 
	C323.955933,178.693558 325.028168,210.080338 310.263092,240.845047 
	C290.758148,281.485901 257.477966,302.597595 212.588348,303.605103 
	C160.843201,304.766479 115.483704,267.260254 105.376266,216.515945 
	C94.630562,162.567245 126.270088,108.222183 178.640594,91.736710 
	C227.428329,76.379051 279.474670,95.740692 305.577393,140.095642 
	C306.927094,142.389099 308.207855,144.723114 309.691376,147.371582 
M139.785645,218.624710 
	C140.913071,222.447693 141.625748,226.456314 143.239426,230.061661 
	C150.387253,246.031784 161.906235,257.119354 179.618515,260.203369 
	C190.651611,262.124451 201.385208,253.915207 203.140869,242.830811 
	C204.656830,233.259766 200.700119,225.244293 195.318436,217.810364 
	C181.911377,199.290649 162.654236,194.467804 141.213913,195.197784 
	C140.104309,195.235565 138.133560,197.671722 138.168396,198.947433 
	C138.340286,205.241196 139.053329,211.520172 139.785645,218.624710 
M236.902710,161.909760 
	C234.429703,144.510910 224.850540,131.451828 211.571625,119.617569 
	C206.889450,124.962540 202.309906,129.563904 198.454514,134.707977 
	C186.502136,150.655487 183.687469,168.175690 190.532379,187.010681 
	C194.300735,197.379944 202.467422,203.453690 212.082275,203.396927 
	C221.786575,203.339645 230.716614,196.928741 233.562653,186.352173 
	C235.607193,178.754211 235.897156,170.684113 236.902710,161.909760 
M230.937073,257.712616 
	C238.834091,261.791931 246.628906,261.093353 254.406525,257.302368 
	C278.861938,245.382248 286.535278,224.063431 285.844482,198.205048 
	C285.815704,197.127182 284.048553,195.212982 283.033386,195.173416 
	C258.068542,194.200104 236.570969,201.536652 224.107285,225.288757 
	C217.503235,237.874130 219.648270,248.116699 230.937073,257.712616 
z"/>
<path fill="#E9AC60" opacity="1.000000" stroke="none" 
	d="
M139.680557,218.214539 
	C139.053329,211.520172 138.340286,205.241196 138.168396,198.947433 
	C138.133560,197.671722 140.104309,195.235565 141.213913,195.197784 
	C162.654236,194.467804 181.911377,199.290649 195.318436,217.810364 
	C200.700119,225.244293 204.656830,233.259766 203.140869,242.830811 
	C201.385208,253.915207 190.651611,262.124451 179.618515,260.203369 
	C161.906235,257.119354 150.387253,246.031784 143.239426,230.061661 
	C141.625748,226.456314 140.913071,222.447693 139.680557,218.214539 
z"/>
<path fill="#E9AC60" opacity="1.000000" stroke="none" 
	d="
M236.936279,162.367188 
	C235.897156,170.684113 235.607193,178.754211 233.562653,186.352173 
	C230.716614,196.928741 221.786575,203.339645 212.082275,203.396927 
	C202.467422,203.453690 194.300735,197.379944 190.532379,187.010681 
	C183.687469,168.175690 186.502136,150.655487 198.454514,134.707977 
	C202.309906,129.563904 206.889450,124.962540 211.571625,119.617569 
	C224.850540,131.451828 234.429703,144.510910 236.936279,162.367188 
z"/>
<path fill="#E9AC60" opacity="1.000000" stroke="none" 
	d="
M230.635742,257.501953 
	C219.648270,248.116699 217.503235,237.874130 224.107285,225.288757 
	C236.570969,201.536652 258.068542,194.200104 283.033386,195.173416 
	C284.048553,195.212982 285.815704,197.127182 285.844482,198.205048 
	C286.535278,224.063431 278.861938,245.382248 254.406525,257.302368 
	C246.628906,261.093353 238.834091,261.791931 230.635742,257.501953 
z"/>
</svg>